<?xml version="1.0" encoding="UTF-8"?>
<svg id="Camada_1" xmlns="http://www.w3.org/2000/svg" version="1.1" viewBox="0 0 130 50">
  <!-- Generator: Adobe Illustrator 30.3.0, SVG Export Plug-In . SVG Version: 2.1.3 Build 182)  -->
  <defs>
    <style>
      .st0, .st1 {
        fill: #0047fd;
      }

      .st1 {
        fill-rule: evenodd;
      }
    </style>
  </defs>
  <g id="Logo">
    <g id="Group">
      <g id="Layer_2">
        <g id="Camada_11" data-name="Camada_1">
          <path id="Vector" class="st0" d="M45.65,43.89c-.04-.73-.08-1.6-.08-2.24h-.02c-.19.61-.39,1.26-.66,1.97l-.92,2.52h-.51l-.84-2.47c-.25-.73-.45-1.4-.6-2.02h-.02c-.02.65-.05,1.52-.1,2.29l-.14,2.23h-.64l.37-5.19h.86l.89,2.51c.21.64.39,1.21.52,1.75h.02c.13-.52.32-1.09.55-1.75l.92-2.51h.86l.32,5.19h-.65l-.13-2.28Z"/>
          <path id="Vector_2" class="st0" d="M50.17,46.17l-.05-.47h-.02c-.27.36-.69.56-1.14.55-.58.04-1.09-.39-1.14-.98,0-.03,0-.06,0-.09,0-.9.8-1.39,2.24-1.39v-.08c0-.31-.08-.86-.85-.86-.34,0-.68.1-.97.28l-.15-.45c.37-.22.79-.34,1.23-.33,1.14,0,1.42.78,1.42,1.53v1.39c0,.3.02.6.06.89h-.62ZM50.07,44.26c-.74-.02-1.58.11-1.58.84-.03.33.22.62.55.65.03,0,.06,0,.09,0,.4,0,.77-.24.9-.62.02-.07.04-.14.04-.22v-.65Z"/>
          <path id="Vector_3" class="st0" d="M52.44,43.6c0-.44,0-.82-.03-1.16h.59l.02.73h.03c.13-.46.55-.79,1.03-.82.06,0,.13,0,.19.02v.64c-.08-.02-.15-.02-.23-.02-.48,0-.82.36-.91.87-.02.1-.03.21-.03.32v1.99h-.67v-2.57Z"/>
          <path id="Vector_4" class="st0" d="M56.28,44.15h.02c.09-.13.22-.29.33-.42l1.09-1.29h.82l-1.43,1.53,1.64,2.2h-.83l-1.29-1.79-.35.38v1.4h-.67v-5.45h.67v3.44Z"/>
          <path id="Vector_5" class="st0" d="M60.21,44.43c.01.92.6,1.29,1.28,1.29.35.01.71-.05,1.03-.19l.11.48c-.39.16-.82.24-1.24.23-1.15,0-1.83-.75-1.83-1.88s.66-2.01,1.75-2.01c1.22,0,1.54,1.07,1.54,1.76,0,.11,0,.21-.02.32h-2.62ZM62.2,43.94c0-.43-.18-1.1-.94-1.1-.69,0-.98.63-1.04,1.1h1.98Z"/>
          <path id="Vector_6" class="st0" d="M65.13,41.37v1.07h.97v.52h-.97v2.01c0,.46.13.72.51.72.13,0,.26-.01.39-.05l.03.51c-.19.07-.4.1-.6.09-.27.02-.54-.09-.73-.28-.19-.2-.26-.53-.26-.97v-2.03h-.58v-.52h.58v-.89l.66-.18Z"/>
          <path id="Vector_7" class="st0" d="M68.23,41.39c-.02.23-.22.41-.45.39-.21-.01-.38-.18-.39-.39,0-.23.17-.42.4-.42h.02c.22,0,.41.16.42.39v.04ZM67.48,46.17v-3.73h.68v3.73h-.68Z"/>
          <path id="Vector_8" class="st0" d="M69.9,43.45c0-.39,0-.7-.03-1.01h.6l.04.62h.02c.25-.45.72-.71,1.23-.7.52,0,1.32.31,1.32,1.59v2.23h-.68v-2.15c0-.6-.22-1.1-.86-1.1-.42,0-.79.29-.91.69-.03.1-.05.21-.05.32v2.24h-.67v-2.72Z"/>
          <path id="Vector_9" class="st0" d="M78,42.44c-.01.27-.03.56-.03,1.02v2.17c0,.86-.17,1.38-.53,1.7-.38.31-.86.47-1.36.45-.43.01-.86-.1-1.24-.31l.17-.52c.33.2.71.3,1.09.29.69,0,1.2-.36,1.2-1.3v-.42h-.02c-.25.41-.71.64-1.19.62-.92,0-1.59-.79-1.59-1.82,0-1.26.83-1.98,1.68-1.98.48-.03.93.22,1.16.65h.01l.03-.56h.59ZM77.3,43.91c.02-.55-.41-1-.95-1.02h-.03c-.65,0-1.11.55-1.11,1.41,0,.73.38,1.34,1.1,1.34.43,0,.81-.28.94-.69.04-.12.05-.24.05-.36v-.67Z"/>
          <path id="Vector_10" class="st0" d="M82.34,44.43c.02.92.6,1.29,1.28,1.29.35.01.71-.05,1.03-.19l.11.48c-.39.16-.82.24-1.24.23-1.15,0-1.83-.75-1.83-1.88s.66-2.01,1.75-2.01c1.22,0,1.54,1.07,1.54,1.76,0,.11,0,.21-.02.32h-2.62ZM84.33,43.94c0-.43-.18-1.1-.94-1.1-.69,0-.99.63-1.04,1.1h1.98Z"/>
          <path id="Vector_11" class="st0" d="M89.39,41.54h-1.58v-.56h3.85v.56h-1.59v4.62h-.68v-4.62Z"/>
          <path id="Vector_12" class="st0" d="M92.65,44.43c.02.92.6,1.29,1.28,1.29.35.01.7-.05,1.03-.19l.12.48c-.39.16-.82.24-1.24.23-1.15,0-1.83-.75-1.83-1.88s.66-2.01,1.75-2.01c1.22,0,1.54,1.07,1.54,1.76,0,.11,0,.21-.02.32h-2.62ZM94.64,43.94c0-.43-.18-1.1-.94-1.1-.69,0-.99.63-1.04,1.1h1.98Z"/>
          <path id="Vector_13" class="st0" d="M99.41,46.03c-.34.15-.7.23-1.07.22-1.13,0-1.86-.76-1.86-1.9s.79-1.98,2-1.98c.32,0,.64.06.94.19l-.15.52c-.24-.13-.51-.19-.79-.18-.86,0-1.32.63-1.32,1.41,0,.86.55,1.39,1.29,1.39.29,0,.57-.06.83-.19l.11.51Z"/>
          <path id="Vector_14" class="st0" d="M100.82,43.45c0-.39,0-.7-.03-1.01h.6l.04.62h.03c.25-.45.72-.72,1.23-.7.51,0,1.31.31,1.31,1.59v2.23h-.68v-2.15c0-.6-.22-1.1-.86-1.1-.42,0-.79.29-.91.69-.03.1-.05.21-.05.32v2.24h-.68v-2.72Z"/>
          <path id="Vector_15" class="st0" d="M109.09,44.28c0,1.38-.96,1.98-1.86,1.98-1.01,0-1.79-.74-1.79-1.92,0-1.25.82-1.98,1.85-1.98,1.07,0,1.8.77,1.8,1.92ZM106.13,44.31c0,.82.47,1.43,1.13,1.43s1.13-.61,1.13-1.45c0-.63-.32-1.43-1.13-1.43s-1.13.74-1.13,1.45h0Z"/>
          <path id="Vector_16" class="st0" d="M110.56,40.7h.68v5.47h-.68v-5.47Z"/>
          <path id="Vector_17" class="st0" d="M116.37,44.28c0,1.38-.96,1.98-1.86,1.98-1.01,0-1.79-.74-1.79-1.92,0-1.25.82-1.98,1.85-1.98,1.07,0,1.79.77,1.79,1.92ZM113.41,44.31c0,.82.47,1.43,1.13,1.43s1.13-.61,1.13-1.45c0-.63-.32-1.43-1.12-1.43s-1.14.74-1.14,1.45h0Z"/>
          <path id="Vector_18" class="st0" d="M121.06,42.44c-.01.27-.03.56-.03,1.02v2.17c0,.86-.17,1.38-.53,1.7-.38.31-.87.47-1.36.45-.43.01-.86-.1-1.24-.31l.17-.52c.33.2.71.3,1.09.29.69,0,1.2-.36,1.2-1.3v-.42h-.01c-.25.41-.71.64-1.19.62-.92,0-1.59-.79-1.59-1.82,0-1.26.82-1.98,1.68-1.98.48-.03.93.22,1.16.65h.02l.03-.56h.59ZM120.36,43.91c0-.1-.01-.21-.04-.31-.12-.42-.5-.72-.94-.72-.65,0-1.11.55-1.11,1.41,0,.73.38,1.34,1.1,1.34.43,0,.81-.28.94-.69.04-.12.06-.24.05-.36v-.67Z"/>
          <path id="Vector_19" class="st0" d="M123.48,41.39c0,.22-.16.41-.38.42h-.05c-.22,0-.41-.18-.41-.4h0c0-.24.17-.43.4-.44h.02c.22,0,.41.17.42.39v.03ZM122.72,46.17v-3.73h.68v3.73h-.68Z"/>
          <path id="Vector_20" class="st0" d="M127.2,46.17l-.06-.47h-.02c-.27.36-.69.56-1.14.55-.58.04-1.09-.39-1.14-.98,0-.03,0-.06,0-.09,0-.9.8-1.39,2.24-1.39v-.08c0-.31-.08-.86-.85-.86-.34,0-.68.1-.97.28l-.15-.45c.37-.22.79-.34,1.23-.33,1.14,0,1.42.78,1.42,1.53v1.39c0,.3.01.6.06.89h-.62ZM127.1,44.26c-.74-.02-1.58.11-1.58.84-.03.33.22.62.55.65.03,0,.06,0,.09,0,.4.01.77-.24.9-.62.02-.07.03-.14.04-.22v-.65Z"/>
          <g id="EFICAZ">
            <path id="Vector_21" class="st1" d="M23.95,21.82c.01-.45.38-.82.83-.83h1.47c1.13,0,1.62-.49,1.86-.94.15-.29.74-1.72,1.13-2.6h-5.3V7.25c-.02-.44.32-.81.76-.83h2.92c1.13,0,1.67-.54,1.86-.98l1.18-2.55h-9.17c-.56,0-1.03.42-1.08.98v33.35h7.85c1.13,0,1.67-.49,1.91-.93.15-.3.74-1.67,1.13-2.55h-7.36v-11.91ZM40.89,3.92v33.29h2.45c.57,0,1.03-.46,1.03-1.03v-13.87c0-.46.38-.84.85-.83h2.39c1.13,0,1.62-.54,1.87-.98l1.18-2.55h-6.28V7.25c.01-.45.38-.82.83-.83h3.93c1.13,0,1.62-.54,1.86-.98.15-.29.79-1.67,1.13-2.55h-10.21c-.57,0-1.03.46-1.03,1.04h0ZM63.52,2.89h-2.11v33.58c.05.24.19.73,1.03.73h2.5V4.27c.02-.74-.57-1.36-1.32-1.37-.04,0-.07,0-.11,0ZM82.61,2.55h-2.16c-2.42-.02-4.4,1.93-4.42,4.35h0v26.28c.01,2.42,1.99,4.38,4.41,4.36h2.17c2.35-.09,4.21-2.01,4.22-4.36v-8.27c-.88.39-2.26.98-2.55,1.13-.44.24-.94.78-.94,1.91v4.61c.03,1.04-.79,1.92-1.83,1.95-1.04.03-1.92-.79-1.95-1.83V7.5c.03-1.04.91-1.86,1.95-1.83,1,.03,1.8.83,1.83,1.83v7.7l2.56-1.18c.44-.19.94-.73.94-1.86v-5.24c.01-2.36-1.87-4.3-4.23-4.36ZM101.27,2.89h-1.92l-5.2,34.32h3.88l3.09-23.63,3.09,23.63h3.88l-4.96-32.46c-.15-.93-.39-1.86-1.86-1.86ZM118.39,33.73c-.49,0-.79-.34-.64-.94l10.15-29.91h-13.35c.39.88.98,2.26,1.13,2.55.25.44.79.98,1.91.98h3.98c.59,0,.78.39.69.83l-10.1,29.96h12.81c1.13,0,1.62-.49,1.86-.98l1.13-2.5h-9.58Z"/>
          </g>
          <path id="Vector_22" class="st0" d="M14.38,4.05c-.44.19-.98.73-.98,1.86v31.31h3.53V2.87l-2.55,1.19Z"/>
          <path id="Vector_23" class="st0" d="M8.72,9.32c-.44.19-.98.73-.98,1.86v26.04h3.53V8.14l-2.55,1.18Z"/>
          <path id="Vector_24" class="st0" d="M3.01,17.32c-.44.2-.98.74-.98,1.86v18.04h3.53v-21.08l-2.55,1.18Z"/>
        </g>
      </g>
    </g>
  </g>
</svg>