<?xml version="1.0" encoding="UTF-8"?> <svg xmlns="http://www.w3.org/2000/svg" xmlns:xlink="http://www.w3.org/1999/xlink" width="190.514" height="74.15" viewBox="0 0 190.514 74.15"><defs><clipPath id="clip-path"><path id="Caminho_12922" data-name="Caminho 12922" d="M350.105,486.47v.085a19.076,19.076,0,0,1-1.647,7.71l-2.706-1.207a2.884,2.884,0,0,1-1.612-3.345,13.625,13.625,0,0,0-13.245-16.858,13.532,13.532,0,0,0-10.742,5.226q-.246.316-.476.65a14.231,14.231,0,0,0-3.757-.977.349.349,0,0,0-.05-.008h-.012a14.864,14.864,0,0,0-1.639-.1c-.128,0-.261.008-.389.012a19.216,19.216,0,0,1,36.28,8.811h0Z" transform="translate(-313.83 -467.28)" fill="none"></path></clipPath><clipPath id="clip-path-2"><path id="Caminho_13008" data-name="Caminho 13008" d="M263.974,565.49a10.9,10.9,0,0,1-10.968,10.692H220.278a14.361,14.361,0,1,1-.182-28.722,14.964,14.964,0,0,1,1.639.1h.012s.035,0,.05.008a14.38,14.38,0,0,1,12.661,14.257h-3.064a2.885,2.885,0,0,1-2.788-2.18,8.782,8.782,0,0,0-17.287,2.032,8.9,8.9,0,0,0,8.935,8.931h32.829A5.293,5.293,0,0,0,258.4,565.3a5.217,5.217,0,0,0-2.924-4.574,19.316,19.316,0,0,0,.514-4.353v-.085c0-.439-.019-.876-.047-1.308a10.805,10.805,0,0,1,8.039,10.513h-.008Z" transform="translate(-205.735 -547.46)" fill="none"></path></clipPath></defs><g id="plugg-to-by-totvs-horizontal-positivo-1" transform="translate(-205.734 -465.74)"><g id="Grupo_4658" data-name="Grupo 4658" transform="translate(205.735 465.74)"><g id="Grupo_4656" data-name="Grupo 4656" transform="translate(0 0.198)"><g id="Grupo_4652" data-name="Grupo 4652" transform="translate(13.971)"><path id="Caminho_12838" data-name="Caminho 12838" d="M350.105,486.461v.085a19.076,19.076,0,0,1-1.647,7.71l-2.706-1.207a2.884,2.884,0,0,1-1.612-3.345,13.625,13.625,0,0,0-13.245-16.858,13.532,13.532,0,0,0-10.742,5.226q-.246.316-.476.65a14.232,14.232,0,0,0-3.757-.977h0a.349.349,0,0,0-.05-.008h-.012a14.871,14.871,0,0,0-1.639-.1c-.128,0-.261.008-.389.012a19.216,19.216,0,0,1,36.28,8.81h0Z" transform="translate(-313.83 -467.27)" fill="#03922f"></path><g id="Grupo_4651" data-name="Grupo 4651" transform="translate(0 0.001)" clip-path="url(#clip-path)"><g id="Grupo_4650" data-name="Grupo 4650" transform="translate(0 -0.001)"><path id="Caminho_12839" data-name="Caminho 12839" d="M562.98,608.619l4.073-10.009v10.009Z" transform="translate(-530.778 -581.634)" fill="#03922f"></path><path id="Caminho_12840" data-name="Caminho 12840" d="M559.97,602.193l4.462-10.963v.954l-4.073,10.009Z" transform="translate(-528.157 -575.208)" fill="#03922f"></path><path id="Caminho_12841" data-name="Caminho 12841" d="M556.99,595.741l4.847-11.921v.958l-4.462,10.963Z" transform="translate(-525.562 -568.756)" fill="#03922f"></path><path id="Caminho_12842" data-name="Caminho 12842" d="M553.97,589.288l5.237-12.878v.958l-4.847,11.921Z" transform="translate(-522.932 -562.304)" fill="#03922f"></path><path id="Caminho_12843" data-name="Caminho 12843" d="M550.96,582.862l5.626-13.832v.954l-5.237,12.878Z" transform="translate(-520.311 -555.878)" fill="#03922f"></path><path id="Caminho_12844" data-name="Caminho 12844" d="M547.95,576.4l6.015-14.791v.959L548.339,576.4Z" transform="translate(-517.69 -549.417)" fill="#03922f"></path><path id="Caminho_12845" data-name="Caminho 12845" d="M544.94,569.975l6.4-15.745v.954l-6.015,14.791Z" transform="translate(-515.069 -542.99)" fill="#03922f"></path><path id="Caminho_12846" data-name="Caminho 12846" d="M541.92,563.523l6.795-16.7v.958l-6.4,15.745Z" transform="translate(-512.44 -536.538)" fill="#03922f"></path><path id="Caminho_12847" data-name="Caminho 12847" d="M538.91,557.1l7.184-17.657v.954L539.3,557.1Z" transform="translate(-509.819 -530.112)" fill="#03922f"></path><path id="Caminho_12848" data-name="Caminho 12848" d="M535.9,550.644l7.573-18.614v.958l-7.184,17.657Z" transform="translate(-507.198 -523.66)" fill="#03922f"></path><path id="Caminho_12849" data-name="Caminho 12849" d="M532.89,544.218l7.962-19.568v.954l-7.573,18.614Z" transform="translate(-504.577 -517.234)" fill="#03922f"></path><path id="Caminho_12850" data-name="Caminho 12850" d="M529.9,537.766l8.348-20.526v.958l-7.962,19.568Z" transform="translate(-501.973 -510.781)" fill="#03922f"></path><path id="Caminho_12851" data-name="Caminho 12851" d="M526.89,531.34l8.737-21.48v.954l-8.348,20.526Z" transform="translate(-499.352 -504.355)" fill="#03922f"></path><path id="Caminho_12852" data-name="Caminho 12852" d="M523.88,524.888l9.126-22.438v.958l-8.737,21.48Z" transform="translate(-496.731 -497.903)" fill="#03922f"></path><path id="Caminho_12853" data-name="Caminho 12853" d="M520.87,518.435l9.515-23.4V496l-9.126,22.438Z" transform="translate(-494.11 -491.451)" fill="#03922f"></path><path id="Caminho_12854" data-name="Caminho 12854" d="M518.546,512.009l-.3-.12L528.1,487.66v.954l-9.515,23.4Z" transform="translate(-491.829 -485.025)" fill="#03922f"></path><path id="Caminho_12855" data-name="Caminho 12855" d="M515.995,505.437l-.335-.136,10.189-25.051v.958Z" transform="translate(-489.574 -478.572)" fill="#03922f"></path><path id="Caminho_12856" data-name="Caminho 12856" d="M513.4,498.875l-.335-.137,10.523-25.868v.954Z" transform="translate(-487.318 -472.146)" fill="#03922f"></path><path id="Caminho_12857" data-name="Caminho 12857" d="M510.832,495.325l-.332-.132,10.672-26.243.184.075v.432Z" transform="translate(-485.081 -468.733)" fill="#03922f"></path><rect id="Retângulo_4426" data-name="Retângulo 4426" width="28.329" height="0.362" transform="matrix(0.377, -0.926, 0.926, 0.377, 25.086, 26.323)" fill="#03922f"></rect><path id="Caminho_12858" data-name="Caminho 12858" d="M505.655,493.593l-.335-.136,10.653-26.187h.156l.2.081Z" transform="translate(-480.57 -467.27)" fill="#03922f"></path><path id="Caminho_12859" data-name="Caminho 12859" d="M503.065,493.457l-.335-.136,10.6-26.051h.389Z" transform="translate(-478.315 -467.27)" fill="#03922f"></path><path id="Caminho_12860" data-name="Caminho 12860" d="M500.5,493.321l-.331-.137,10.54-25.914h.389Z" transform="translate(-476.086 -467.27)" fill="#03922f"></path><path id="Caminho_12861" data-name="Caminho 12861" d="M497.915,493.184l-.335-.136,10.485-25.779h.39Z" transform="translate(-473.83 -467.27)" fill="#03922f"></path><path id="Caminho_12862" data-name="Caminho 12862" d="M495.325,493.049l-.335-.137,10.434-25.642h.385Z" transform="translate(-471.575 -467.27)" fill="#03922f"></path><path id="Caminho_12863" data-name="Caminho 12863" d="M492.761,492.912l-.331-.132,10.376-25.51h.389Z" transform="translate(-469.346 -467.27)" fill="#03922f"></path><path id="Caminho_12864" data-name="Caminho 12864" d="M490.175,492.78l-.335-.137,10.322-25.373h.389Z" transform="translate(-467.091 -467.27)" fill="#03922f"></path><path id="Caminho_12865" data-name="Caminho 12865" d="M487.585,492.643l-.335-.136,10.268-25.237h.389Z" transform="translate(-464.836 -467.27)" fill="#03922f"></path><path id="Caminho_12866" data-name="Caminho 12866" d="M485.021,492.507l-.331-.136,10.208-25.1h.39Z" transform="translate(-462.607 -467.27)" fill="#03922f"></path><path id="Caminho_12867" data-name="Caminho 12867" d="M482.435,492.371l-.335-.137,10.154-24.964h.389Z" transform="translate(-460.351 -467.27)" fill="#03922f"></path><path id="Caminho_12868" data-name="Caminho 12868" d="M479.845,492.234l-.335-.136,10.1-24.829H490Z" transform="translate(-458.096 -467.27)" fill="#03922f"></path><path id="Caminho_12869" data-name="Caminho 12869" d="M477.255,492.1l-.335-.137,10.045-24.692h.389Z" transform="translate(-455.841 -467.27)" fill="#03922f"></path><path id="Caminho_12870" data-name="Caminho 12870" d="M474.691,491.962l-.331-.132,9.986-24.56h.39Z" transform="translate(-453.612 -467.27)" fill="#03922f"></path><path id="Caminho_12871" data-name="Caminho 12871" d="M472.1,491.83l-.335-.137,9.935-24.423h.385Z" transform="translate(-451.356 -467.27)" fill="#03922f"></path><path id="Caminho_12872" data-name="Caminho 12872" d="M469.506,491.693l-.336-.136,9.882-24.287h.389Z" transform="translate(-449.092 -467.27)" fill="#03922f"></path><path id="Caminho_12873" data-name="Caminho 12873" d="M466.941,491.557l-.331-.137,9.824-24.15h.389Z" transform="translate(-446.863 -467.27)" fill="#03922f"></path><path id="Caminho_12874" data-name="Caminho 12874" d="M464.355,491.42l-.335-.136,9.769-24.014h.39Z" transform="translate(-444.608 -467.27)" fill="#03922f"></path><path id="Caminho_12875" data-name="Caminho 12875" d="M461.765,491.284l-.335-.136,9.714-23.879h.389Z" transform="translate(-442.353 -467.27)" fill="#03922f"></path><path id="Caminho_12876" data-name="Caminho 12876" d="M459.2,491.149l-.331-.137,9.656-23.742h.389Z" transform="translate(-440.124 -467.27)" fill="#03922f"></path><path id="Caminho_12877" data-name="Caminho 12877" d="M456.615,491.012l-.335-.136,9.6-23.606h.389Z" transform="translate(-437.868 -467.27)" fill="#03922f"></path><path id="Caminho_12878" data-name="Caminho 12878" d="M454.025,490.876l-.335-.133,9.546-23.473h.39Z" transform="translate(-435.613 -467.27)" fill="#03922f"></path><path id="Caminho_12879" data-name="Caminho 12879" d="M451.435,490.743l-.335-.136,9.492-23.337h.389Z" transform="translate(-433.358 -467.27)" fill="#03922f"></path><path id="Caminho_12880" data-name="Caminho 12880" d="M448.871,490.607l-.331-.137,9.438-23.2h.385Z" transform="translate(-431.129 -467.27)" fill="#03922f"></path><path id="Caminho_12881" data-name="Caminho 12881" d="M446.285,490.47l-.335-.136,9.383-23.064h.389Z" transform="translate(-428.874 -467.27)" fill="#03922f"></path><path id="Caminho_12882" data-name="Caminho 12882" d="M443.695,490.334l-.335-.136,9.329-22.929h.389Z" transform="translate(-426.618 -467.27)" fill="#03922f"></path><path id="Caminho_12883" data-name="Caminho 12883" d="M441.131,490.2l-.331-.137,9.27-22.792h.39Z" transform="translate(-424.389 -467.27)" fill="#03922f"></path><path id="Caminho_12884" data-name="Caminho 12884" d="M438.545,490.062l-.335-.136,9.215-22.656h.389Z" transform="translate(-422.134 -467.27)" fill="#03922f"></path><path id="Caminho_12885" data-name="Caminho 12885" d="M435.955,489.926l-.335-.133,9.161-22.523h.389Z" transform="translate(-419.879 -467.27)" fill="#03922f"></path><path id="Caminho_12886" data-name="Caminho 12886" d="M433.365,489.793l-.335-.136,9.107-22.387h.389Z" transform="translate(-417.624 -467.27)" fill="#03922f"></path><path id="Caminho_12887" data-name="Caminho 12887" d="M430.8,489.657l-.331-.137,9.047-22.25h.39Z" transform="translate(-415.394 -467.27)" fill="#03922f"></path><path id="Caminho_12888" data-name="Caminho 12888" d="M428.206,489.52l-.336-.136,9-22.114h.385Z" transform="translate(-413.13 -467.27)" fill="#03922f"></path><path id="Caminho_12889" data-name="Caminho 12889" d="M425.615,489.384l-.335-.136,8.944-21.979h.389Z" transform="translate(-410.875 -467.27)" fill="#03922f"></path><path id="Caminho_12890" data-name="Caminho 12890" d="M423.051,489.249l-.331-.137,8.886-21.842h.389Z" transform="translate(-408.646 -467.27)" fill="#03922f"></path><path id="Caminho_12891" data-name="Caminho 12891" d="M420.465,489.112l-.335-.136,8.83-21.706h.39Z" transform="translate(-406.391 -467.27)" fill="#03922f"></path><path id="Caminho_12892" data-name="Caminho 12892" d="M417.875,488.976l-.335-.133,8.776-21.573h.389Z" transform="translate(-404.136 -467.27)" fill="#03922f"></path><path id="Caminho_12893" data-name="Caminho 12893" d="M415.311,488.843l-.331-.136L423.7,467.27h.389Z" transform="translate(-401.906 -467.27)" fill="#03922f"></path><path id="Caminho_12894" data-name="Caminho 12894" d="M412.725,488.707l-.335-.137,8.664-21.3h.389Z" transform="translate(-399.651 -467.27)" fill="#03922f"></path><path id="Caminho_12895" data-name="Caminho 12895" d="M410.135,488.57l-.335-.136,8.608-21.165h.39Z" transform="translate(-397.396 -467.27)" fill="#03922f"></path><path id="Caminho_12896" data-name="Caminho 12896" d="M407.545,488.435l-.335-.136,8.554-21.029h.389Z" transform="translate(-395.141 -467.27)" fill="#03922f"></path><path id="Caminho_12897" data-name="Caminho 12897" d="M404.981,488.3l-.331-.137,8.5-20.892h.385Z" transform="translate(-392.912 -467.27)" fill="#03922f"></path><path id="Caminho_12898" data-name="Caminho 12898" d="M402.395,488.162l-.335-.136,8.445-20.756h.389Z" transform="translate(-390.656 -467.27)" fill="#03922f"></path><path id="Caminho_12899" data-name="Caminho 12899" d="M399.8,488.026l-.335-.137,8.391-20.619h.389Z" transform="translate(-388.401 -467.27)" fill="#03922f"></path><path id="Caminho_12900" data-name="Caminho 12900" d="M397.241,487.889l-.331-.132,8.331-20.487h.39Z" transform="translate(-386.172 -467.27)" fill="#03922f"></path><path id="Caminho_12901" data-name="Caminho 12901" d="M394.655,487.757l-.335-.137,8.277-20.35h.389Z" transform="translate(-383.917 -467.27)" fill="#03922f"></path><path id="Caminho_12902" data-name="Caminho 12902" d="M392.065,487.62l-.335-.136,8.223-20.215h.389Z" transform="translate(-381.661 -467.27)" fill="#03922f"></path><path id="Caminho_12903" data-name="Caminho 12903" d="M389.5,487.485l-.331-.136,8.165-20.079h.389Z" transform="translate(-379.432 -467.27)" fill="#03922f"></path><path id="Caminho_12904" data-name="Caminho 12904" d="M386.915,487.349l-.335-.137,8.109-19.942h.39Z" transform="translate(-377.177 -467.27)" fill="#03922f"></path><path id="Caminho_12905" data-name="Caminho 12905" d="M384.316,487.212l-.336-.136,8.056-19.806h.389Z" transform="translate(-374.913 -467.27)" fill="#03922f"></path><path id="Caminho_12906" data-name="Caminho 12906" d="M381.725,487.076l-.335-.137L389.4,467.27h.385Z" transform="translate(-372.658 -467.27)" fill="#03922f"></path><path id="Caminho_12907" data-name="Caminho 12907" d="M379.161,486.939l-.331-.132,7.948-19.537h.389Z" transform="translate(-370.429 -467.27)" fill="#03922f"></path><path id="Caminho_12908" data-name="Caminho 12908" d="M376.575,486.807l-.335-.137,7.892-19.4h.39Z" transform="translate(-368.174 -467.27)" fill="#03922f"></path><path id="Caminho_12909" data-name="Caminho 12909" d="M373.985,486.67l-.335-.136,7.838-19.265h.389Z" transform="translate(-365.918 -467.27)" fill="#03922f"></path><path id="Caminho_12910" data-name="Caminho 12910" d="M371.421,486.535l-.331-.136,7.779-19.129h.389Z" transform="translate(-363.689 -467.27)" fill="#03922f"></path><path id="Caminho_12911" data-name="Caminho 12911" d="M368.835,486.4l-.335-.137,7.725-18.992h.389Z" transform="translate(-361.434 -467.27)" fill="#03922f"></path><path id="Caminho_12912" data-name="Caminho 12912" d="M366.245,486.262l-.335-.136,7.67-18.856h.39Z" transform="translate(-359.179 -467.27)" fill="#03922f"></path><path id="Caminho_12913" data-name="Caminho 12913" d="M363.655,486.126l-.335-.137,7.615-18.719h.389Z" transform="translate(-356.923 -467.27)" fill="#03922f"></path><path id="Caminho_12914" data-name="Caminho 12914" d="M361.091,485.989l-.331-.132,7.561-18.587h.385Z" transform="translate(-354.694 -467.27)" fill="#03922f"></path><path id="Caminho_12915" data-name="Caminho 12915" d="M358.5,485.857l-.335-.137,7.507-18.45h.389Z" transform="translate(-352.439 -467.27)" fill="#03922f"></path><path id="Caminho_12916" data-name="Caminho 12916" d="M355.915,485.72l-.335-.136,7.451-18.315h.39Z" transform="translate(-350.184 -467.27)" fill="#03922f"></path><path id="Caminho_12917" data-name="Caminho 12917" d="M353.351,485.585l-.331-.137,7.393-18.178h.389Z" transform="translate(-347.955 -467.27)" fill="#03922f"></path><path id="Caminho_12918" data-name="Caminho 12918" d="M350.765,485.448l-.335-.136,7.339-18.042h.389Z" transform="translate(-345.699 -467.27)" fill="#03922f"></path><path id="Caminho_12919" data-name="Caminho 12919" d="M348.175,485.312l-.335-.136,7.284-17.906h.389Z" transform="translate(-343.444 -467.27)" fill="#03922f"></path><path id="Caminho_12920" data-name="Caminho 12920" d="M345.611,485.176l-.331-.137,7.226-17.769h.389Z" transform="translate(-341.215 -467.27)" fill="#03922f"></path><path id="Caminho_12921" data-name="Caminho 12921" d="M317.895,485.039l-4.065-1.65V467.27h11.291Z" transform="translate(-313.83 -467.27)" fill="#03922f"></path></g></g></g><g id="Grupo_4655" data-name="Grupo 4655" transform="translate(0 10.364)"><path id="Caminho_12923" data-name="Caminho 12923" d="M263.974,565.49a10.9,10.9,0,0,1-10.968,10.692H220.278a14.361,14.361,0,1,1-.182-28.722,14.964,14.964,0,0,1,1.639.1h.012s.035,0,.05.008h0a14.38,14.38,0,0,1,12.661,14.257h-3.064a2.885,2.885,0,0,1-2.788-2.18,8.782,8.782,0,0,0-17.287,2.032,8.9,8.9,0,0,0,8.935,8.931h32.829A5.293,5.293,0,0,0,258.4,565.3a5.217,5.217,0,0,0-2.924-4.574,19.325,19.325,0,0,0,.514-4.353v-.085c0-.439-.019-.876-.047-1.308a10.805,10.805,0,0,1,8.039,10.513h-.008Z" transform="translate(-205.735 -547.46)" fill="#03922f"></path><g id="Grupo_4654" data-name="Grupo 4654" clip-path="url(#clip-path-2)"><g id="Grupo_4653" data-name="Grupo 4653" transform="translate(-0.077 0.004)"><path id="Caminho_12924" data-name="Caminho 12924" d="M225.784,547.49l-10.9,28.718H205.14V547.49Z" transform="translate(-205.14 -547.49)" fill="#03922f"></path><path id="Caminho_12925" data-name="Caminho 12925" d="M291.858,547.49l-10.894,28.718h-.424l10.9-28.718Z" transform="translate(-270.795 -547.49)" fill="#03922f"></path><path id="Caminho_12926" data-name="Caminho 12926" d="M295.134,547.49l-10.893,28.718h-.421l10.894-28.718Z" transform="translate(-273.651 -547.49)" fill="#03922f"></path><path id="Caminho_12927" data-name="Caminho 12927" d="M298.4,547.49l-10.9,28.718h-.42l10.893-28.718Z" transform="translate(-276.489 -547.49)" fill="#03922f"></path><path id="Caminho_12928" data-name="Caminho 12928" d="M301.648,547.49l-10.9,28.718h-.42l10.9-28.718Z" transform="translate(-279.319 -547.49)" fill="#03922f"></path><path id="Caminho_12929" data-name="Caminho 12929" d="M304.9,547.49l-10.893,28.718h-.425l10.9-28.718Z" transform="translate(-282.149 -547.49)" fill="#03922f"></path><path id="Caminho_12930" data-name="Caminho 12930" d="M308.184,547.49,297.29,576.208h-.42l10.893-28.718Z" transform="translate(-285.014 -547.49)" fill="#03922f"></path><path id="Caminho_12931" data-name="Caminho 12931" d="M311.438,547.49l-10.9,28.718h-.42l10.894-28.718Z" transform="translate(-287.844 -547.49)" fill="#03922f"></path><path id="Caminho_12932" data-name="Caminho 12932" d="M314.688,547.49l-10.9,28.718h-.421l10.9-28.718Z" transform="translate(-290.674 -547.49)" fill="#03922f"></path><path id="Caminho_12933" data-name="Caminho 12933" d="M317.948,547.49l-10.894,28.718h-.424l10.9-28.718Z" transform="translate(-293.513 -547.49)" fill="#03922f"></path><path id="Caminho_12934" data-name="Caminho 12934" d="M321.224,547.49,310.33,576.208h-.42L320.8,547.49Z" transform="translate(-296.369 -547.49)" fill="#03922f"></path><path id="Caminho_12935" data-name="Caminho 12935" d="M324.478,547.49l-10.9,28.718h-.421l10.894-28.718Z" transform="translate(-299.199 -547.49)" fill="#03922f"></path><path id="Caminho_12936" data-name="Caminho 12936" d="M327.738,547.49l-10.9,28.718h-.42l10.9-28.718Z" transform="translate(-302.037 -547.49)" fill="#03922f"></path><path id="Caminho_12937" data-name="Caminho 12937" d="M330.988,547.49l-10.9,28.718h-.42l10.9-28.718Z" transform="translate(-304.867 -547.49)" fill="#03922f"></path><path id="Caminho_12938" data-name="Caminho 12938" d="M334.238,547.49l-10.893,28.718h-.425l10.9-28.718Z" transform="translate(-307.697 -547.49)" fill="#03922f"></path><path id="Caminho_12939" data-name="Caminho 12939" d="M337.524,547.49,326.63,576.208h-.42L337.1,547.49Z" transform="translate(-310.562 -547.49)" fill="#03922f"></path><path id="Caminho_12940" data-name="Caminho 12940" d="M340.778,547.49l-10.9,28.718h-.42l10.894-28.718Z" transform="translate(-313.392 -547.49)" fill="#03922f"></path><path id="Caminho_12941" data-name="Caminho 12941" d="M344.028,547.49l-10.9,28.718h-.421l10.9-28.718Z" transform="translate(-316.222 -547.49)" fill="#03922f"></path><path id="Caminho_12942" data-name="Caminho 12942" d="M347.288,547.49l-10.894,28.718h-.424l10.9-28.718Z" transform="translate(-319.06 -547.49)" fill="#03922f"></path><path id="Caminho_12943" data-name="Caminho 12943" d="M350.564,547.49,339.67,576.208h-.42l10.894-28.718Z" transform="translate(-321.916 -547.49)" fill="#03922f"></path><path id="Caminho_12944" data-name="Caminho 12944" d="M353.818,547.49l-10.9,28.718H342.5l10.894-28.718Z" transform="translate(-324.746 -547.49)" fill="#03922f"></path><path id="Caminho_12945" data-name="Caminho 12945" d="M357.078,547.49l-10.9,28.718h-.42l10.9-28.718Z" transform="translate(-327.585 -547.49)" fill="#03922f"></path><path id="Caminho_12946" data-name="Caminho 12946" d="M360.328,547.49l-10.894,28.718h-.424l10.9-28.718Z" transform="translate(-330.415 -547.49)" fill="#03922f"></path><path id="Caminho_12947" data-name="Caminho 12947" d="M363.6,547.49l-10.893,28.718h-.421l10.894-28.718Z" transform="translate(-333.271 -547.49)" fill="#03922f"></path><path id="Caminho_12948" data-name="Caminho 12948" d="M366.868,547.49l-10.9,28.718h-.42l10.893-28.718Z" transform="translate(-336.11 -547.49)" fill="#03922f"></path><path id="Caminho_12949" data-name="Caminho 12949" d="M370.118,547.49l-10.9,28.718h-.42l10.9-28.718Z" transform="translate(-338.94 -547.49)" fill="#03922f"></path><path id="Caminho_12950" data-name="Caminho 12950" d="M373.368,547.49l-10.893,28.718h-.425l10.9-28.718Z" transform="translate(-341.77 -547.49)" fill="#03922f"></path><path id="Caminho_12951" data-name="Caminho 12951" d="M376.654,547.49,365.76,576.208h-.42l10.893-28.718Z" transform="translate(-344.634 -547.49)" fill="#03922f"></path><path id="Caminho_12952" data-name="Caminho 12952" d="M379.908,547.49l-10.9,28.718h-.42l10.894-28.718Z" transform="translate(-347.464 -547.49)" fill="#03922f"></path><path id="Caminho_12953" data-name="Caminho 12953" d="M383.158,547.49l-10.9,28.718h-.421l10.9-28.718Z" transform="translate(-350.294 -547.49)" fill="#03922f"></path><path id="Caminho_12954" data-name="Caminho 12954" d="M386.418,547.49l-10.894,28.718H375.1L386,547.49Z" transform="translate(-353.133 -547.49)" fill="#03922f"></path><path id="Caminho_12955" data-name="Caminho 12955" d="M389.694,547.49,378.8,576.208h-.42l10.894-28.718Z" transform="translate(-355.989 -547.49)" fill="#03922f"></path><path id="Caminho_12956" data-name="Caminho 12956" d="M392.948,547.49l-10.9,28.718h-.421l10.894-28.718Z" transform="translate(-358.819 -547.49)" fill="#03922f"></path><path id="Caminho_12957" data-name="Caminho 12957" d="M396.208,547.49l-10.9,28.718h-.42l10.9-28.718Z" transform="translate(-361.658 -547.49)" fill="#03922f"></path><path id="Caminho_12958" data-name="Caminho 12958" d="M399.458,547.49l-10.893,28.718h-.425l10.9-28.718Z" transform="translate(-364.487 -547.49)" fill="#03922f"></path><path id="Caminho_12959" data-name="Caminho 12959" d="M402.743,547.49,391.85,576.208h-.42l10.893-28.718Z" transform="translate(-367.352 -547.49)" fill="#03922f"></path><path id="Caminho_12960" data-name="Caminho 12960" d="M406,547.49l-10.9,28.718h-.42l10.893-28.718Z" transform="translate(-370.182 -547.49)" fill="#03922f"></path><path id="Caminho_12961" data-name="Caminho 12961" d="M409.248,547.49l-10.9,28.718h-.421l10.9-28.718Z" transform="translate(-373.012 -547.49)" fill="#03922f"></path><path id="Caminho_12962" data-name="Caminho 12962" d="M412.508,547.49l-10.894,28.718h-.424l10.9-28.718Z" transform="translate(-375.851 -547.49)" fill="#03922f"></path><path id="Caminho_12963" data-name="Caminho 12963" d="M415.784,547.49,404.89,576.208h-.42l10.894-28.718Z" transform="translate(-378.707 -547.49)" fill="#03922f"></path><path id="Caminho_12964" data-name="Caminho 12964" d="M419.038,547.49l-10.9,28.718h-.421l10.894-28.718Z" transform="translate(-381.537 -547.49)" fill="#03922f"></path><path id="Caminho_12965" data-name="Caminho 12965" d="M422.3,547.49l-10.9,28.718h-.42l10.9-28.718Z" transform="translate(-384.375 -547.49)" fill="#03922f"></path><path id="Caminho_12966" data-name="Caminho 12966" d="M425.548,547.49l-10.894,28.718h-.424l10.9-28.718Z" transform="translate(-387.205 -547.49)" fill="#03922f"></path><path id="Caminho_12967" data-name="Caminho 12967" d="M428.824,547.49l-10.893,28.718h-.421L428.4,547.49Z" transform="translate(-390.061 -547.49)" fill="#03922f"></path><path id="Caminho_12968" data-name="Caminho 12968" d="M432.052,547.49l.028.012L421.19,576.208h-.42l10.893-28.718Z" transform="translate(-392.9 -547.49)" fill="#03922f"></path><path id="Caminho_12969" data-name="Caminho 12969" d="M434.911,547.58l.37.14-10.84,28.567h-.42Z" transform="translate(-395.73 -547.568)" fill="#03922f"></path><path id="Caminho_12970" data-name="Caminho 12970" d="M438.11,548.66l.37.141L427.7,577.227h-.425Z" transform="translate(-398.56 -548.509)" fill="#03922f"></path><path id="Caminho_12971" data-name="Caminho 12971" d="M441.345,549.75l.366.136-10.73,28.29h-.42Z" transform="translate(-401.425 -549.458)" fill="#03922f"></path><path id="Caminho_12972" data-name="Caminho 12972" d="M444.54,550.8l.37.14-10.68,28.15h-.42Z" transform="translate(-404.255 -550.372)" fill="#03922f"></path><path id="Caminho_12973" data-name="Caminho 12973" d="M447.74,551.88l.37.141-10.628,28.01h-.421Z" transform="translate(-407.085 -551.313)" fill="#03922f"></path><path id="Caminho_12974" data-name="Caminho 12974" d="M450.948,552.97l.367.14-10.571,27.87h-.424Z" transform="translate(-409.923 -552.262)" fill="#03922f"></path><path id="Caminho_12975" data-name="Caminho 12975" d="M454.171,554.05l.37.141L444.02,581.92h-.42Z" transform="translate(-412.779 -553.202)" fill="#03922f"></path><path id="Caminho_12976" data-name="Caminho 12976" d="M457.371,555.14l.366.14-10.465,27.589h-.421Z" transform="translate(-415.609 -554.151)" fill="#03922f"></path><path id="Caminho_12977" data-name="Caminho 12977" d="M460.575,556.22l.37.141L450.53,583.809h-.42Z" transform="translate(-418.448 -555.092)" fill="#03922f"></path><path id="Caminho_12978" data-name="Caminho 12978" d="M463.775,557.31l.37.14L453.78,584.759h-.42Z" transform="translate(-421.278 -556.041)" fill="#03922f"></path><path id="Caminho_12979" data-name="Caminho 12979" d="M466.974,558.39l.366.141L457.035,585.7h-.425Z" transform="translate(-424.108 -556.981)" fill="#03922f"></path><path id="Caminho_12980" data-name="Caminho 12980" d="M470.205,559.48l.371.14L460.32,586.648h-.42Z" transform="translate(-426.973 -557.93)" fill="#03922f"></path><path id="Caminho_12981" data-name="Caminho 12981" d="M473.406,560.56l.37.136L463.57,587.589h-.42Z" transform="translate(-429.802 -558.871)" fill="#03922f"></path><path id="Caminho_12982" data-name="Caminho 12982" d="M476.605,561.61l.366.141L466.821,588.5H466.4Z" transform="translate(-432.632 -559.785)" fill="#03922f"></path><path id="Caminho_12983" data-name="Caminho 12983" d="M479.81,562.7l.37.14-10.1,26.612h-.424Z" transform="translate(-435.471 -560.734)" fill="#03922f"></path><path id="Caminho_12984" data-name="Caminho 12984" d="M483.036,563.78l.366.141L473.36,590.392h-.42Z" transform="translate(-438.327 -561.675)" fill="#03922f"></path><path id="Caminho_12985" data-name="Caminho 12985" d="M486.231,564.87l.37.14-9.99,26.332h-.421Z" transform="translate(-441.157 -562.624)" fill="#03922f"></path><path id="Caminho_12986" data-name="Caminho 12986" d="M489.44,565.95l.371.141-9.941,26.191h-.42Z" transform="translate(-443.996 -563.564)" fill="#03922f"></path><path id="Caminho_12987" data-name="Caminho 12987" d="M492.641,567.04l.366.14-9.882,26.051H482.7Z" transform="translate(-446.826 -564.513)" fill="#03922f"></path><path id="Caminho_12988" data-name="Caminho 12988" d="M495.862,568.12l.37.141L486.4,594.171h-.421Z" transform="translate(-449.682 -565.454)" fill="#03922f"></path><path id="Caminho_12989" data-name="Caminho 12989" d="M499.071,569.21l.37.14-9.78,25.771h-.42Z" transform="translate(-452.52 -566.403)" fill="#03922f"></path><path id="Caminho_12990" data-name="Caminho 12990" d="M502.27,570.29l.366.14-9.726,25.631h-.42Z" transform="translate(-455.35 -567.343)" fill="#03922f"></path><path id="Caminho_12991" data-name="Caminho 12991" d="M505.466,571.37l.371.137L496.165,597h-.425Z" transform="translate(-458.18 -568.284)" fill="#03922f"></path><path id="Caminho_12992" data-name="Caminho 12992" d="M508.7,572.43l.366.14-9.617,25.355h-.42Z" transform="translate(-461.045 -569.207)" fill="#03922f"></path><path id="Caminho_12993" data-name="Caminho 12993" d="M511.9,573.51l.37.141L502.7,598.865h-.42Z" transform="translate(-463.875 -570.147)" fill="#03922f"></path><path id="Caminho_12994" data-name="Caminho 12994" d="M515.1,574.6l.37.14-9.515,25.074h-.421Z" transform="translate(-466.705 -571.096)" fill="#03922f"></path><path id="Caminho_12995" data-name="Caminho 12995" d="M518.305,575.68l.366.141-9.457,24.933h-.424Z" transform="translate(-469.544 -572.036)" fill="#03922f"></path><path id="Caminho_12996" data-name="Caminho 12996" d="M521.527,576.77l.37.14L512.49,601.7h-.42Z" transform="translate(-472.4 -572.986)" fill="#03922f"></path><path id="Caminho_12997" data-name="Caminho 12997" d="M524.727,577.85l.371.141-9.356,24.653h-.421Z" transform="translate(-475.23 -573.926)" fill="#03922f"></path><path id="Caminho_12998" data-name="Caminho 12998" d="M527.936,578.94l.366.14L519,603.593h-.42Z" transform="translate(-478.068 -574.875)" fill="#03922f"></path><path id="Caminho_12999" data-name="Caminho 12999" d="M531.132,580.02l.37.14-9.248,24.374h-.424Z" transform="translate(-480.898 -575.816)" fill="#03922f"></path><path id="Caminho_13000" data-name="Caminho 13000" d="M534.358,581.1l.366.141-9.192,24.233h-.421Z" transform="translate(-483.754 -576.756)" fill="#03922f"></path><path id="Caminho_13001" data-name="Caminho 13001" d="M537.562,582.19l.37.136-9.142,24.1h-.42Z" transform="translate(-486.593 -577.705)" fill="#03922f"></path><path id="Caminho_13002" data-name="Caminho 13002" d="M540.762,583.24l.37.141-9.091,23.956h-.42Z" transform="translate(-489.423 -578.619)" fill="#03922f"></path><path id="Caminho_13003" data-name="Caminho 13003" d="M543.961,584.33l.367.14L535.3,608.286h-.425Z" transform="translate(-492.253 -579.568)" fill="#03922f"></path><path id="Caminho_13004" data-name="Caminho 13004" d="M547.193,585.41l.37.141-8.983,23.676h-.42Z" transform="translate(-495.117 -580.509)" fill="#03922f"></path><path id="Caminho_13005" data-name="Caminho 13005" d="M550.393,586.5l.37.14-8.931,23.536h-.421Z" transform="translate(-497.947 -581.458)" fill="#03922f"></path><path id="Caminho_13006" data-name="Caminho 13006" d="M553.6,587.58l.366.141-8.877,23.4h-.42Z" transform="translate(-500.786 -582.398)" fill="#03922f"></path><path id="Caminho_13007" data-name="Caminho 13007" d="M556.8,588.67l5.162,1.958v21.437H547.92Z" transform="translate(-503.616 -583.348)" fill="#03922f"></path></g></g></g></g><g id="Grupo_4657" data-name="Grupo 4657" transform="translate(68.876 0)"><path id="Caminho_13009" data-name="Caminho 13009" d="M738.63,551.852V520.066h5.139v1.261a6.991,6.991,0,0,1,4.535-1.7,5.155,5.155,0,0,1,4.038,1.741,6.791,6.791,0,0,1,1.534,4.661v11.146a6.791,6.791,0,0,1-1.534,4.661,5.127,5.127,0,0,1-4.038,1.741,6.842,6.842,0,0,1-4.535-1.7v9.972H738.63Zm7.561-12.367a2.581,2.581,0,0,0,1.838-.673,2.163,2.163,0,0,0,.712-1.631V526.034a2.161,2.161,0,0,0-.712-1.631,2.556,2.556,0,0,0-1.838-.673,2.788,2.788,0,0,0-1.728.522,1.709,1.709,0,0,0-.693,1.437v11.844a1.7,1.7,0,0,0,.693,1.437,2.789,2.789,0,0,0,1.728.522v0Z" transform="translate(-738.63 -512.665)" fill="#03922f"></path><path id="Caminho_13010" data-name="Caminho 13010" d="M888.984,492.125v4.092h-.865a7.931,7.931,0,0,1-5.206-1.588,5.227,5.227,0,0,1-1.923-4.243V465.74h5.139v24.645q0,1.741,1.985,1.741h.869Z" transform="translate(-862.59 -465.74)" fill="#03922f"></path><path id="Caminho_13011" data-name="Caminho 13011" d="M971.157,522.991v23.08h-5.139V544.81a7.284,7.284,0,0,1-4.579,1.7,5.376,5.376,0,0,1-4-1.569,6.081,6.081,0,0,1-1.534-4.442V522.99h5.139V540.5a1.651,1.651,0,0,0,.669,1.413,2.917,2.917,0,0,0,1.791.5,3.107,3.107,0,0,0,1.772-.455,1.568,1.568,0,0,0,.735-1.285v-17.68h5.139Z" transform="translate(-927.827 -515.591)" fill="#03922f"></path><path id="Caminho_13012" data-name="Caminho 13012" d="M1105.841,548.178a2.5,2.5,0,0,0,1.857-.7,2.429,2.429,0,0,0,.693-1.788v-3.831a6.665,6.665,0,0,1-4.45,1.7,5.316,5.316,0,0,1-4.1-1.741,6.744,6.744,0,0,1-1.554-4.661V526.012a6.757,6.757,0,0,1,1.554-4.661,5.237,5.237,0,0,1,4.1-1.741,6.9,6.9,0,0,1,4.45,1.7v-1.261h5.139V545.17a6.645,6.645,0,0,1-2.161,5.1,7.754,7.754,0,0,1-5.485,2,8.412,8.412,0,0,1-5.357-1.764,5.484,5.484,0,0,1-2.246-4.508v-.479h5.1v.479a1.977,1.977,0,0,0,.712,1.569,2.61,2.61,0,0,0,1.749.611h0Zm.172-8.71a2.732,2.732,0,0,0,1.685-.522,1.709,1.709,0,0,0,.693-1.437V525.664a1.7,1.7,0,0,0-.693-1.437,2.724,2.724,0,0,0-1.685-.522,2.693,2.693,0,0,0-1.923.673,2.163,2.163,0,0,0-.712,1.631v11.146a2.161,2.161,0,0,0,.712,1.631,2.681,2.681,0,0,0,1.923.673v0Z" transform="translate(-1051.796 -512.647)" fill="#03922f"></path><path id="Caminho_13013" data-name="Caminho 13013" d="M1248.241,548.178a2.5,2.5,0,0,0,1.857-.7,2.429,2.429,0,0,0,.693-1.788v-3.831a6.665,6.665,0,0,1-4.45,1.7,5.316,5.316,0,0,1-4.1-1.741,6.743,6.743,0,0,1-1.554-4.661V526.012a6.757,6.757,0,0,1,1.554-4.661,5.237,5.237,0,0,1,4.1-1.741,6.9,6.9,0,0,1,4.45,1.7v-1.261h5.139V545.17a6.646,6.646,0,0,1-2.161,5.1,7.755,7.755,0,0,1-5.485,2,8.413,8.413,0,0,1-5.357-1.764,5.484,5.484,0,0,1-2.246-4.508v-.479h5.1v.479a1.977,1.977,0,0,0,.712,1.569,2.61,2.61,0,0,0,1.749.611h0Zm.171-8.71a2.732,2.732,0,0,0,1.685-.522,1.71,1.71,0,0,0,.693-1.437V525.664a1.7,1.7,0,0,0-.693-1.437,2.724,2.724,0,0,0-1.685-.522,2.693,2.693,0,0,0-1.923.673,2.162,2.162,0,0,0-.712,1.631v11.146a2.161,2.161,0,0,0,.712,1.631,2.681,2.681,0,0,0,1.923.673v0Z" transform="translate(-1175.791 -512.647)" fill="#03922f"></path><path id="Caminho_13014" data-name="Caminho 13014" d="M1389.76,664.615V659.13h5.572v5.485Z" transform="translate(-1305.602 -634.135)" fill="#03922f"></path><path id="Caminho_13015" data-name="Caminho 13015" d="M1454.476,509.409V513.5H1452.7a8.184,8.184,0,0,1-5.377-1.72,5.545,5.545,0,0,1-2.1-4.508V494.513h-3.672v-4.092h3.672V485.59h5.139v4.831h4.1v4.092h-4.1v12.759a2.011,2.011,0,0,0,.627,1.569,2.443,2.443,0,0,0,1.7.565h1.772v0Z" transform="translate(-1350.707 -483.024)" fill="#03922f"></path><path id="Caminho_13016" data-name="Caminho 13016" d="M1574.781,536.733a6.286,6.286,0,0,1-2.138,4.941,7.943,7.943,0,0,1-5.466,1.9,8.039,8.039,0,0,1-5.51-1.9,6.284,6.284,0,0,1-2.138-4.941V526.457a6.285,6.285,0,0,1,2.138-4.941,8.008,8.008,0,0,1,5.51-1.9,7.88,7.88,0,0,1,5.466,1.9,6.289,6.289,0,0,1,2.138,4.941Zm-5.1.478V525.974a2.068,2.068,0,0,0-.712-1.654,2.674,2.674,0,0,0-1.791-.611,2.779,2.779,0,0,0-1.838.611,2.064,2.064,0,0,0-.712,1.654v11.237a2.063,2.063,0,0,0,.712,1.654,2.716,2.716,0,0,0,1.838.611,2.593,2.593,0,0,0,1.791-.611A2.059,2.059,0,0,0,1569.685,537.211Z" transform="translate(-1453.429 -512.656)" fill="#03922f"></path></g></g><g id="Grupo_4661" data-name="Grupo 4661" transform="translate(300.85 516.876)"><g id="Grupo_4659" data-name="Grupo 4659" transform="translate(0 0.004)"><path id="Caminho_13017" data-name="Caminho 13017" d="M943.2,867.818a5.543,5.543,0,0,1-.847-.4v.207a.236.236,0,0,1-.268.268h-.45V861.41h.483a.236.236,0,0,1,.268.268v1.885a6.848,6.848,0,0,1,.847-.363,2.16,2.16,0,0,1,.666-.1h.087a2.1,2.1,0,0,1,1.542.575,2.207,2.207,0,0,1,.583,1.647v.415a2.448,2.448,0,0,1-.273,1.2,1.815,1.815,0,0,1-.76.752,2.378,2.378,0,0,1-1.119.255h-.078a2.079,2.079,0,0,1-.682-.116Zm1.732-.941a1.54,1.54,0,0,0,.411-1.153v-.415a1.6,1.6,0,0,0-.406-1.171,1.475,1.475,0,0,0-1.1-.411h-.173a2.026,2.026,0,0,0-.6.1,6.33,6.33,0,0,0-.679.26v2.825a6.749,6.749,0,0,0,.7.277,1.87,1.87,0,0,0,.566.1h.164a1.521,1.521,0,0,0,1.11-.4Z" transform="translate(-941.64 -861.41)" fill="#023"></path><path id="Caminho_13018" data-name="Caminho 13018" d="M979.07,881.288v-.354c0-.178.1-.268.293-.268h.26a1.965,1.965,0,0,0,.773-.125,1.141,1.141,0,0,0,.463-.354,3.3,3.3,0,0,0,.354-.635l-2.091-4.753h.6a.312.312,0,0,1,.312.208l1.538,3.655,1.451-3.655a.3.3,0,0,1,.312-.208h.527l-1.918,4.8a4.242,4.242,0,0,1-.557,1.042,1.612,1.612,0,0,1-.7.522,2.973,2.973,0,0,1-1.046.155,4.413,4.413,0,0,1-.57-.035Z" transform="translate(-974.232 -873.069)" fill="#023"></path></g><g id="Grupo_4660" data-name="Grupo 4660" transform="translate(14.451 0)"><path id="Caminho_13019" data-name="Caminho 13019" d="M1072.275,866.2a2.193,2.193,0,0,0-.826-1.159,21.434,21.434,0,0,0-7.515-3.553,3.351,3.351,0,0,0-1.662,0,21.432,21.432,0,0,0-7.515,3.553,2.189,2.189,0,0,0-.826,1.159,13.529,13.529,0,0,0-.482,3.574V876a13.522,13.522,0,0,0,.482,3.574,2.193,2.193,0,0,0,.826,1.159,21.432,21.432,0,0,0,7.515,3.553,3.351,3.351,0,0,0,1.662,0,21.435,21.435,0,0,0,7.515-3.553,2.193,2.193,0,0,0,.826-1.159,13.529,13.529,0,0,0,.482-3.574v-6.232a13.522,13.522,0,0,0-.482-3.574m-.268,7.1a1.97,1.97,0,0,1-.743,1.043,20.06,20.06,0,0,1-3.47,2.085,22.208,22.208,0,0,1-3.94,1.42,3.025,3.025,0,0,1-1.5,0,22.174,22.174,0,0,1-3.94-1.42,20.06,20.06,0,0,1-3.47-2.085,1.971,1.971,0,0,1-.743-1.043h0a1.566,1.566,0,0,1,0-.817h0a1.97,1.97,0,0,1,.743-1.043,20.1,20.1,0,0,1,3.47-2.085,22.212,22.212,0,0,1,3.94-1.42,3.025,3.025,0,0,1,1.5,0,22.17,22.17,0,0,1,3.94,1.42,20.053,20.053,0,0,1,3.47,2.085,1.965,1.965,0,0,1,.743,1.043,1.563,1.563,0,0,1,0,.817" transform="translate(-1053.45 -861.38)" fill="#023"></path><path id="Caminho_13020" data-name="Caminho 13020" d="M1243.711,908.192h-2.81a.652.652,0,0,1-.732-.71V905.76h9.877v1.723a.652.652,0,0,1-.732.71h-2.81V917.3h-2.793v-9.109Z" transform="translate(-1216.036 -900.024)" fill="#023"></path><path id="Caminho_13021" data-name="Caminho 13021" d="M1325.993,912.277a7.922,7.922,0,0,0,1.753-1.093,1.81,1.81,0,0,0,.7-1.3,6.824,6.824,0,0,0,0-1.755,1.847,1.847,0,0,0-.7-1.282,6.885,6.885,0,0,0-1.753-1.11,1.967,1.967,0,0,0-1.488,0,6.885,6.885,0,0,0-1.753,1.11,1.854,1.854,0,0,0-.7,1.282,6.764,6.764,0,0,0,0,1.755,1.816,1.816,0,0,0,.7,1.3,7.768,7.768,0,0,0,1.753,1.093,2.206,2.206,0,0,0,1.488,0m-2.566,2.479a11.128,11.128,0,0,1-2.462-1.317,4.542,4.542,0,0,1-1.779-3.15,11.064,11.064,0,0,1,0-2.566,4.473,4.473,0,0,1,1.779-3.133,10.682,10.682,0,0,1,2.462-1.343,4.471,4.471,0,0,1,3.642,0,10.55,10.55,0,0,1,2.462,1.343,4.474,4.474,0,0,1,1.778,3.133,11.064,11.064,0,0,1,0,2.566,4.543,4.543,0,0,1-1.778,3.15,11.07,11.07,0,0,1-2.462,1.317,4.39,4.39,0,0,1-3.642,0" transform="translate(-1284.776 -897.499)" fill="#023"></path><path id="Caminho_13022" data-name="Caminho 13022" d="M1420.141,908.192h-2.81a.653.653,0,0,1-.732-.71V905.76h9.877v1.723a.652.652,0,0,1-.731.71h-2.81V917.3h-2.793v-9.109Z" transform="translate(-1369.663 -900.024)" fill="#023"></path><path id="Caminho_13023" data-name="Caminho 13023" d="M1512.134,916.882l-3.067-3.958a1.269,1.269,0,0,1-.3-.874V905.76h2.028a.639.639,0,0,1,.709.71v5.02a1.267,1.267,0,0,0,.3.882l2.045,2.54,1.954-2.54a1.38,1.38,0,0,0,.3-.882v-5.02a.64.64,0,0,1,.71-.71h2.028v6.291a1.367,1.367,0,0,1-.3.882l-3.033,3.949a.992.992,0,0,1-.866.42H1513a.985.985,0,0,1-.866-.42" transform="translate(-1449.92 -900.024)" fill="#023"></path><path id="Caminho_13024" data-name="Caminho 13024" d="M1600.58,911.78h2.148c.5,0,.584.171.724.648.2.679.785,1.035,1.984,1.035h.638c1.233,0,1.872-.38,1.872-1.139v-.249c0-.465-.406-.768-1.207-.914l-2.717-.492c-1.941-.345-3.243-1.268-3.243-2.968v-.664c0-2.13,1.906-3.346,4.184-3.346h1.3c2.726,0,4.261,1.449,4.261,3.726h-2.174c-.432,0-.556-.1-.646-.458-.163-.636-.622-.958-1.6-.958h-.742c-.871,0-1.725.242-1.725,1.026v.268c0,.414.371.707,1.13.838l2.838.509c1.888.336,3.2,1.207,3.2,2.993v.69c0,2.312-2.045,3.459-4.494,3.459h-1.172c-2.665,0-4.562-1.207-4.562-4" transform="translate(-1529.864 -898.221)" fill="#023"></path></g></g></g></svg> 