<?xml version="1.0" encoding="UTF-8"?>
<svg id="Camada_1" xmlns="http://www.w3.org/2000/svg" version="1.1" viewBox="0 0 120 47">
  <!-- Generator: Adobe Illustrator 30.3.0, SVG Export Plug-In . SVG Version: 2.1.3 Build 182)  -->
  <defs>
    <style>
      .st0 {
        fill: #282c2b;
      }
    </style>
  </defs>
  <path class="st0" d="M19.28,24.09c0-3.13-1.41-5.35-7.12-5.35s-9.58,2.21-9.58,6.51c-1.17-1.66-1.66-3.2-1.66-4.49,0-4.18,5.28-6.33,11.23-6.33,7.8,0,12.03,3.69,12.03,9.89v22c-1.47-.62-2.76-.8-4.05-.8-2.82,0-5.4,1.11-8.78,1.11-5.59,0-11.36-2.4-11.36-9.03,0-11.86,17.13-7.62,19.28-13.52ZM19.46,28.95c-1.17,4.12-14.55,1.41-14.55,8.73,0,2.7,2.03,5.04,7.3,5.04,4.48,0,7.24-1.66,7.24-1.66v-12.11Z"/>
  <path class="st0" d="M67.18,24.09c0-3.13-1.41-5.35-7.12-5.35s-9.58,2.21-9.58,6.51c-1.17-1.66-1.66-3.2-1.66-4.49,0-4.18,5.28-6.33,11.23-6.33,7.8,0,12.03,3.69,12.03,9.89v22c-1.47-.62-2.76-.8-4.05-.8-2.82,0-5.4,1.11-8.78,1.11-5.59,0-11.36-2.4-11.36-9.03,0-11.86,17.13-7.62,19.28-13.52ZM67.37,28.95c-1.17,4.12-14.55,1.41-14.55,8.73,0,2.7,2.03,5.04,7.3,5.04,4.48,0,7.24-1.66,7.24-1.66v-12.11Z"/>
  <path class="st0" d="M47.24,37.61c0-1.68.33-3.04.91-4.15v-15.63c0-3.07-4.91-3.07-4.91-3.07v26.49s-2.88,1.29-7.37,1.29c-5.46,0-7.43-2.21-7.43-6.02v-18.68c0-3.01-4.91-3.07-4.91-3.07v22.68c0,7.25,5.89,9.22,11.48,9.22,3.5,0,6.2-1.29,9.15-1.29,1.23,0,2.58.25,3.99.98v-4.62c-.58-1.14-.91-2.5-.91-4.1h0Z"/>
  <path class="st0" d="M115.09,24.09c0-3.13-1.41-5.35-7.12-5.35s-9.58,2.21-9.58,6.51c-1.17-1.66-1.66-3.2-1.66-4.49,0-4.18,5.28-6.33,11.23-6.33,7.8,0,12.03,3.69,12.03,9.89v22c-1.47-.62-2.76-.8-4.05-.8-2.82,0-5.4,1.11-8.78,1.11-5.59,0-11.36-2.4-11.36-9.03,0-11.86,17.13-7.62,19.28-13.52h0ZM115.27,28.95c-1.17,4.12-14.55,1.41-14.55,8.73,0,2.7,2.03,5.04,7.31,5.04,4.48,0,7.24-1.66,7.24-1.66v-12.11Z"/>
  <path class="st0" d="M95.14,37.61c0-1.68.33-3.04.91-4.16v-9.3c0-6.08-4.97-9.71-10.74-9.71-7.43,0-9.58,3.38-9.58,3.38,0,0,.61-1.41.61-5.59V3.69C76.35-.12,71.8,0,71.43,0v43.26c0,3.07,4.91,3.07,4.91,3.07v-21.88c0-3.57,4.11-6.02,8.16-6.02,3.81,0,6.63,2.03,6.63,6.64v18.19c0,3.01,4.91,3.07,4.91,3.07v-4.62c-.58-1.14-.91-2.5-.91-4.1h0Z"/>
</svg>