<?xml version="1.0" encoding="UTF-8"?>
<svg id="Camada_1" xmlns="http://www.w3.org/2000/svg" version="1.1" viewBox="0 0 351 59">
  <!-- Generator: Adobe Illustrator 30.3.0, SVG Export Plug-In . SVG Version: 2.1.3 Build 182)  -->
  <defs>
    <style>
      .st0 {
        fill: #feca0d;
      }

      .st0, .st1 {
        fill-rule: evenodd;
      }

      .st1 {
        fill: #1c488e;
      }
    </style>
  </defs>
  <path class="st1" d="M73.76,32.41c7.44,0,11.2-4.27,11.2-12.73s-3.77-12.78-11.2-12.78-11.15,4.33-11.15,12.78,3.71,12.73,11.15,12.73ZM73.71,26.88c-3.16,0-4.78-2.41-4.83-7.2h0c0-4.89,1.72-7.35,4.88-7.35s4.74,2.37,4.74,7.16c-.05,4.88-1.63,7.39-4.79,7.39ZM.1,19.5c0,8.37,3.71,12.69,11.15,12.92h.01c6.05.01,9.39-2.88,10.74-8.08h-4.55c-.83,0-1.53.28-2.09.88-1.21,1.17-2.56,1.77-4,1.77-3.02,0-4.65-1.91-4.88-5.67h15.89c.46-9.62-3.21-14.41-11.02-14.41C3.86,6.95.1,11.13.1,19.5ZM15.82,16.91H6.58c.46-3.26,2.05-4.93,4.69-4.93s4.18,1.68,4.55,4.93ZM35.75,17.15h-9.08c-.84.01-1.42.55-1.72,1.64.16,1.27.74,1.91,1.72,1.91h9.08c.88,0,1.46-.58,1.73-1.73-.26-1.21-.84-1.82-1.73-1.82ZM50.21,32.42c-7.44,0-11.25-4.28-11.43-12.73,0-8.41,3.76-12.64,11.34-12.78,5.95,0,9.48,2.65,10.55,7.99h-6.74c-.74-1.67-2.04-2.56-4-2.56-3.25,0-4.88,2.46-4.88,7.34s1.72,7.34,5.16,7.3c1.44,0,2.7-.6,3.72-1.77.6-.6,1.3-.88,2.09-.88h4.65c-1.12,5.02-4.74,8.23-10.46,8.09ZM93.16,16.15v15.71h-6.27v-14.45c0-7.02,3.53-10.5,10.55-10.5,3.16,0,5.58.7,7.34,2.09,1.77-1.35,4.18-2,7.34-2,7.02,0,10.5,3.49,10.46,10.5v14.45h-3.21c-2.04-.14-3.07-1.12-3.07-3.07v-12.64c-.14-2.56-1.53-3.81-4.28-3.81s-4.14,1.26-4.18,3.81v15.62h-6.23v-15.71c-.14-2.56-1.53-3.81-4.28-3.81s-4.14,1.25-4.18,3.81h.01ZM130.78,31.86v-15.71h0c.04-2.56,1.43-3.81,4.18-3.81s4.14,1.25,4.28,3.81v15.71h6.23v-15.62c.04-2.55,1.43-3.81,4.18-3.81s4.14,1.25,4.28,3.81v12.64c0,1.95,1.03,2.93,3.07,3.07h3.21v-14.45c.04-7.01-3.44-10.5-10.46-10.5-3.16,0-5.57.65-7.34,2-1.76-1.39-4.18-2.09-7.34-2.09-7.02,0-10.55,3.48-10.55,10.5v14.45h6.27ZM173.29,32.42c-7.44-.23-11.15-4.55-11.15-12.92s3.76-12.55,11.25-12.59c7.81,0,11.48,4.79,11.02,14.41h-15.89c.23,3.76,1.86,5.67,4.88,5.67,1.44,0,2.79-.6,4-1.77.56-.6,1.26-.88,2.09-.88h4.55c-1.35,5.2-4.69,8.09-10.74,8.09h-.01ZM168.62,16.91h9.24c-.37-3.25-1.91-4.93-4.55-4.93s-4.23,1.67-4.69,4.93ZM199.01,7.27c-8.22,0-12.45,3.95-12.64,11.9v12.68h6.27v-12.78c0-3.58,1.72-5.39,5.16-5.39h2.09v-6.41h-.88ZM213.25,32.42c-7.44,0-11.25-4.28-11.43-12.73,0-8.41,3.76-12.64,11.34-12.78,5.95,0,9.48,2.65,10.55,7.99h-6.74c-.74-1.67-2.04-2.56-4-2.56-3.25,0-4.88,2.46-4.88,7.34s1.72,7.34,5.16,7.3c1.44,0,2.7-.6,3.72-1.77.6-.6,1.3-.88,2.09-.88h4.65c-1.12,5.02-4.74,8.23-10.46,8.09ZM225.64,19.5c0,8.37,3.71,12.69,11.15,12.92h0c6.05.01,9.39-2.88,10.74-8.08h-4.55c-.83,0-1.53.28-2.09.88-1.21,1.17-2.56,1.77-4,1.77-3.02,0-4.65-1.91-4.88-5.67h15.89c.47-9.62-3.2-14.41-11.01-14.41-7.49.04-11.25,4.22-11.25,12.59ZM241.35,16.91h-9.24c.46-3.26,2.05-4.93,4.69-4.93s4.18,1.68,4.55,4.93Z"/>
  <path class="st0" d="M339.59.19c2.04,0,3.02,1.02,2.97,3.02v1.81h-6.18V.19h3.21ZM339.59,7.21c2,0,2.97.98,2.97,2.97v21.61h-6.18V7.2h3.21ZM263.02,6.84c-3.07,0-5.39,1.25-6.97,3.81V3.31c0-2.04-1.02-3.11-3.07-3.11h-3.11v20.96c0,7.39,3.86,11.06,11.53,11.01,7.62-.14,11.43-4.1,11.43-12.46s-3.26-12.64-9.81-12.87ZM261.21,26.91c-3.53,0-5.21-2.51-5.16-7.48.18-4.74,1.9-7.06,5.25-7.06s5.07,2.32,5.21,7.06c0,4.97-1.77,7.48-5.3,7.48ZM287.3,7.21c-8.22,0-12.45,3.95-12.64,11.9v12.68h6.27v-12.78c0-3.58,1.72-5.39,5.16-5.39h2.09v-6.41h-.88ZM297.01,13.63h0c.33-1.15,1.54-1.71,3.72-1.71,2.56,0,3.86.7,4,2.09,0,1.34-1.35,2.13-4,2.46-6.22.61-10.5,2.19-10.64,8.09,0,5.43,4.09,8.18,9.99,7.71,6.65-.46,10.74-3.48,10.74-10.27v-8.37c-.14-4.56-3.57-6.79-10.36-6.79-5.67,0-8.88,2.24-9.62,6.79h6.17,0s.01,0,.01,0ZM304.81,21.73v-2.28c-1.44.6-3.11,1.12-4.93,1.49-2.46.47-3.72,1.63-3.72,3.44.14,1.95,1.16,2.88,3.11,2.88,3.44,0,5.53-2.04,5.53-5.53h.01ZM328,25.02c0,1.58-1.3,2.32-3.9,2.32v.02c-3.02,0-4.97-.93-5.11-3.63h-6.32c0,2.84.93,4.98,2.79,6.37,1.68,1.44,4.28,2.18,7.72,2.18,6.51,0,11.25-2.23,11.25-8.27,0-1.67-.56-3.16-1.72-4.37-1.35-1.25-4.09-2.32-8.27-3.16-3.21-.6-4.79-1.57-4.79-2.83s1.2-1.91,3.62-1.91c2.05,0,3.3.6,3.72,1.67.37.97,1.3,1.48,2.74,1.53h3.9c-.14-2.56-1.12-4.56-2.93-6-1.86-1.39-4.37-2.09-7.53-2.09-5.63.09-9.81,2.6-9.81,7.9.04,3.86,2.83,6.27,8.27,7.25,4.23.74,6.37,1.76,6.37,3.02ZM350.68,31.79V3.21c0-1.63-1.34-3.02-2.97-3.02h-3.21v31.6h6.18Z"/>
  <path class="st1" d="M87.64,42.25h-11.61v16h11.77v-1.91h-9.66v-5.42h8.78v-1.85h-8.78v-4.86h9.5v-1.96ZM85.36,40.99l-2.22-3.15h-2.06l-2.21,3.15h1.77l1.47-2.09,1.47,2.09h1.78ZM42.07,43.42c1.11,1.07,1.72,2.28,1.84,3.64h-2.11c-.23-1.03-.71-1.85-1.41-2.45-.7-.6-1.69-.9-2.96-.9-1.55,0-2.8.55-3.75,1.66s-1.43,2.81-1.43,5.1c0,1.87.43,3.4,1.29,4.56.86,1.17,2.14,1.75,3.85,1.75,1.57,0,2.76-.61,3.58-1.84.44-.65.76-1.5.97-2.55h2.11c-.19,1.68-.81,3.1-1.85,4.24-1.26,1.37-2.95,2.06-5.08,2.06-1.84,0-3.38-.56-4.63-1.69-1.64-1.49-2.47-3.79-2.47-6.9,0-2.36.62-4.3,1.85-5.81,1.34-1.64,3.18-2.46,5.52-2.46,2,0,3.56.53,4.66,1.6h.02ZM11.7,42.25H.09v16h11.78v-1.91H2.21v-5.42h8.77v-1.85H2.21v-4.86h9.49v-1.96ZM14.06,58.25h2.61l4.38-6.58,4.26,6.58h2.69l-5.57-8.21,5.31-7.79h-2.58l-4,6.12-4.04-6.12h-2.7l5.31,7.79-5.67,8.21ZM59.24,42.25h-11.61v16h11.77v-1.91h-9.66v-5.42h8.78v-1.85h-8.78v-4.86h9.5v-1.96ZM62.86,42.25h2.17v14.09h8.02v1.91h-10.19v-16ZM91.26,42.25h2.55l7.98,12.93v-12.93h2.07v16h-2.43l-8.1-12.91v12.91h-2.07v-16ZM121.08,47.06c-.12-1.36-.73-2.57-1.84-3.64h.02c-1.1-1.06-2.66-1.59-4.66-1.59-2.34,0-4.18.82-5.52,2.46-1.24,1.51-1.85,3.45-1.85,5.81,0,3.11.82,5.41,2.46,6.9,1.25,1.13,2.79,1.69,4.63,1.69,2.13,0,3.83-.69,5.08-2.06,1.04-1.14,1.66-2.56,1.85-4.24h-2.12c-.21,1.05-.54,1.9-.97,2.55-.82,1.23-2.02,1.84-3.59,1.84-1.71,0-2.99-.58-3.85-1.75-.86-1.16-1.29-2.69-1.29-4.56,0-2.29.48-3.99,1.43-5.1s2.2-1.66,3.75-1.66c1.27,0,2.26.3,2.96.9.7.6,1.17,1.42,1.4,2.45h2.11ZM127.27,42.25h-2.19v16h2.19v-16ZM138.47,42.25h-2.45l-6.02,16h2.22l1.74-4.79h6.28l1.67,4.79h2.37l-5.81-16ZM137.16,44.62l2.46,7.07h-5.02l2.56-7.07ZM152.53,42.25h11.61v1.96h-9.5v4.86h8.78v1.85h-8.78v5.42h9.66v1.91h-11.77v-16ZM170.81,42.25h-3.12v16h2.07v-9.44c0-.38,0-.97-.03-1.77-.02-.8-.03-1.4-.03-1.79v-.49l4.61,13.49h2.15l4.57-13.49c0,.87,0,1.68-.02,2.43-.02.75-.02,1.29-.02,1.62h0v9.44h2.07v-16h-3.08l-4.57,13.53-4.6-13.53ZM193.86,42.25h11.61v1.96h-9.5v4.86h8.78v1.85h-8.78v5.42h9.66v1.91h-11.77v-16ZM208.31,51.03h5.47v2.02h-5.47v-2.02ZM228.39,43.42c1.1,1.07,1.72,2.28,1.84,3.64h-2.11c-.24-1.03-.7-1.85-1.41-2.45-.7-.6-1.69-.9-2.96-.9-1.55,0-2.8.55-3.75,1.66s-1.43,2.81-1.43,5.1c0,1.87.43,3.4,1.29,4.56.86,1.17,2.14,1.75,3.85,1.75,1.57,0,2.76-.61,3.58-1.84.44-.65.76-1.5.97-2.55h2.12c-.19,1.68-.8,3.1-1.85,4.24-1.25,1.37-2.95,2.06-5.08,2.06-1.84,0-3.38-.56-4.63-1.69-1.64-1.49-2.47-3.79-2.47-6.9,0-2.36.62-4.3,1.85-5.81,1.33-1.64,3.18-2.46,5.52-2.46,2,0,3.56.53,4.66,1.6h0ZM248.51,49.97c0-2.2-.53-4.01-1.59-5.43h-.02c-1.36-1.81-3.57-2.72-6.27-2.72s-4.74.98-6.12,2.96c-1.07,1.53-1.61,3.39-1.61,5.55,0,2.4.63,4.38,1.89,5.95,1.41,1.63,3.35,2.44,5.81,2.44,2.64,0,4.67-.93,6.09-2.79,1.21-1.58,1.82-3.57,1.82-5.96ZM246.27,50.02c0,1.78-.42,3.35-1.28,4.72h-.01c-.85,1.37-2.13,2.06-4.14,2.06s-3.46-.61-4.36-1.83c-.89-1.21-1.34-2.71-1.34-4.48,0-2.21.53-3.89,1.57-5.03,1.04-1.14,2.34-1.71,4.05-1.71s3.06.57,4.04,1.72c.98,1.15,1.47,2.67,1.47,4.55ZM251.59,42.25h3.11l4.6,13.53,4.57-13.53h3.08v16h-2.07v-9.44c0-.33,0-.87.02-1.62.02-.75.02-1.56.02-2.43l-4.57,13.49h-2.15l-4.61-13.49v.49c0,.39,0,.99.03,1.79.02.8.03,1.39.03,1.77v9.44h-2.07v-16h0ZM273.84,42.25h-3.12v16h2.07v-9.44c0-.38-.01-.97-.03-1.77-.02-.8-.03-1.4-.03-1.79v-.49l4.61,13.49h2.15l4.57-13.49c0,.87-.01,1.68-.02,2.43-.02.75-.02,1.29-.02,1.62v9.44h2.07v-16h-3.08l-4.57,13.53-4.6-13.53ZM290.13,42.25h11.61v1.96h-9.49v4.86h8.77v1.85h-8.77v5.42h9.66v1.91h-11.78v-16ZM305.63,42.25h-.01.01s0,0,0,0ZM305.63,42.25h7.26c1.2,0,2.18.18,2.96.53,1.48.68,2.21,1.94,2.21,3.78,0,.96-.2,1.74-.59,2.35-.4.61-.95,1.1-1.66,1.47.62.25,1.1.59,1.41,1,.32.41.49,1.09.53,2.01l.08,2.14c.02.61.07,1.07.15,1.36.13.51.36.84.7.98v.36h-2.66c-.07-.14-.13-.31-.17-.53-.04-.22-.08-.64-.11-1.26l-.13-2.67c-.05-1.05-.43-1.75-1.13-2.1-.4-.19-1.03-.29-1.89-.29h-4.79v6.86h-2.17v-15.99ZM315.01,48.97c-.58.41-1.36.61-2.35.61h-4.87v-5.47h5.14c.73,0,1.3.11,1.73.33.81.41,1.21,1.19,1.21,2.33,0,1.06-.29,1.79-.86,2.2ZM333.35,43.42c1.1,1.07,1.72,2.28,1.84,3.64h-2.11c-.24-1.03-.7-1.85-1.41-2.45-.7-.6-1.69-.9-2.96-.9-1.55,0-2.8.55-3.75,1.66-.95,1.11-1.43,2.81-1.43,5.1,0,1.87.43,3.4,1.29,4.56.86,1.17,2.14,1.75,3.85,1.75,1.57,0,2.76-.61,3.58-1.84.44-.65.76-1.5.97-2.55h2.11c-.19,1.68-.8,3.1-1.85,4.24-1.25,1.37-2.95,2.06-5.08,2.06-1.84,0-3.38-.56-4.63-1.69-1.64-1.49-2.46-3.79-2.46-6.9,0-2.36.62-4.3,1.85-5.81,1.33-1.64,3.18-2.46,5.52-2.46,2,0,3.56.53,4.66,1.6h.01ZM350.51,42.25h-11.61v16h11.78v-1.91h-9.66v-5.42h8.77v-1.85h-8.77v-4.86h9.49v-1.96Z"/>
</svg>