<svg xmlns="http://www.w3.org/2000/svg" width="55" height="20" fill="none"><path fill="#000" fill-rule="evenodd" d="M23.664 19.994c4.427 0 8.014-3.48 8.014-7.772 0-4.293-3.587-7.772-8.014-7.772s-8.014 3.48-8.014 7.772 3.587 7.772 8.014 7.772Zm0-3.516c2.424 0 4.389-1.905 4.389-4.256s-1.965-4.256-4.39-4.256c-2.423 0-4.388 1.905-4.388 4.256 0 2.35 1.965 4.256 4.389 4.256ZM37.978.007h-3.625v2.962h3.625V.007Zm-3.625 7.771h-1.907V4.816h5.536v14.806h-3.626V7.778h-.003Z" clip-rule="evenodd"/><path fill="#000" d="M44.659 7.04c.88-1.284 2.294-2.59 4.579-2.59 3.84 0 5.726 2.775 5.726 6.294v8.884H51.34v-8.144c0-2.028-1.22-3.515-3.245-3.515-2.17 0-3.435 1.816-3.435 4.071v7.588h-3.625V4.819h3.625v2.222Z"/><path fill="#000" fill-rule="evenodd" d="M0 4.82v14.805h3.625V4.82H0Zm9.541 5.552 6.87 9.253h-4.579l-4.388-5.737 2.097-3.516Z" clip-rule="evenodd"/><path fill="#14DD3E" d="M10.878 2.969.763 19.624h4.199L15.077 2.97h-4.199Z"/></svg>