<?xml version="1.0" encoding="UTF-8"?>
<svg id="Camada_1" xmlns="http://www.w3.org/2000/svg" xmlns:serif="http://www.serif.com/" version="1.1" viewBox="0 0 1320 310">
  <!-- Generator: Adobe Illustrator 30.3.0, SVG Export Plug-In . SVG Version: 2.1.3 Build 182)  -->
  <defs>
    <style>
      .st0 {
        fill: #00aeef;
      }

      .st1 {
        fill: #585858;
      }
    </style>
  </defs>
  <path class="st1" d="M276.96,219.18H110.51l-9.54,10.65h166.44l9.54-10.65Z"/>
  <path class="st1" d="M295.24,198.99h-166.44l-11.29,12.56h166.44l11.29-12.56Z"/>
  <path class="st1" d="M51.53,284.84h429.39l1.59-4.77H55.67l-4.13,4.77Z"/>
  <path class="st1" d="M35,303.12h440.04l.8-2.7H37.39l-2.39,2.7Z"/>
  <path class="st1" d="M313.52,178.65h-166.44l-13.03,14.63h166.28l13.19-14.63Z"/>
  <path class="st1" d="M382.35,102.02c-1.59-10.49-.64-22.1,3.34-34.18,4.29-13.04,11.45-25.44,20.83-36.56,8.9-10.49,19.55-19.87,31.48-27.5h-133.38l-154.04,171.06h166.29l65.5-72.81Z"/>
  <path class="st1" d="M515.41,178.65h-141.64l-4.77,14.63h141.65l4.77-14.63Z"/>
  <path class="st1" d="M363.12,211.55h141.65l4.13-12.56h-141.8l-3.98,12.56Z"/>
  <path class="st1" d="M523.68,153.37h-141.8l-6.83,21.46h141.64l6.99-21.46Z"/>
  <path class="st1" d="M84.6,248.12h408.24l2.86-8.59H92.23l-7.63,8.59Z"/>
  <path class="st1" d="M68.07,266.4h418.89l2.07-6.52H73.95l-5.88,6.52Z"/>
  <path class="st1" d="M357.08,229.83h141.8l3.34-10.65h-141.64l-3.5,10.65Z"/>
  <path class="st1" d="M1280.71,144.63c-1.11,2.07-2.7,3.66-4.61,4.77-2.07,1.27-4.29,1.75-6.52,1.75s-4.29-.48-6.36-1.75c-2.07-1.11-3.66-2.7-4.77-4.77-1.11-1.91-1.59-4.13-1.59-6.36s.47-4.29,1.59-6.36c1.27-2.07,2.86-3.66,4.93-4.77,2.07-1.11,4.13-1.59,6.2-1.75,2.22,0,4.29.64,6.36,1.75,2.07,1.11,3.66,2.7,4.77,4.77,1.11,2.07,1.75,4.13,1.75,6.36s-.48,4.45-1.75,6.36M1282.93,130.64c-1.27-2.54-3.34-4.45-5.72-5.72-2.38-1.27-4.93-2.07-7.63-2.07-2.54,0-5.09.8-7.47,2.07-2.54,1.27-4.45,3.18-5.88,5.72-1.27,2.38-2.07,5.09-2.07,7.63,0,2.7.8,5.25,2.07,7.63,1.43,2.54,3.34,4.45,5.72,5.72,2.54,1.43,5.09,2.07,7.63,2.07,2.7,0,5.25-.64,7.79-2.07,2.39-1.27,4.29-3.18,5.57-5.72,1.43-2.39,2.07-4.93,2.07-7.63,0-2.54-.64-5.25-2.07-7.63"/>
  <path class="st1" d="M1269.58,137.47h-3.98v-4.93h3.98c.79,0,1.43.16,1.75.32.48.16.8.48,1.11.8.32.32.32.79.32,1.27,0,.8-.16,1.43-.8,1.91-.48.32-1.27.64-2.38.64ZM1272.28,140.33c-.32-.32-.8-.64-1.43-.95,1.43,0,2.7-.64,3.5-1.43.95-.95,1.27-1.91,1.27-3.18,0-.8-.16-1.75-.8-2.39-.48-.79-1.11-1.43-2.07-1.59-.63-.32-1.75-.48-3.18-.48h-6.68v16.53h2.7v-6.99h1.59c.79,0,1.59.16,2.07.48.16.16.32.16.32.32.63.64,1.59,1.91,2.55,3.5l1.43,2.7h3.18l-1.91-3.34c-.96-1.43-1.75-2.54-2.54-3.18"/>
  <path class="st0" d="M1178.65,302.96h29.89l36.88-115.1h-29.89l-36.88,115.1Z"/>
  <path class="st0" d="M1216.96,183.89h29.73l9.86-30.52h-29.89l-9.7,30.52Z"/>
  <path class="st0" d="M1203.13,213.78l8.27-25.91h-16.37l11.13-34.5h-30.04l-10.97,34.5h-16.53l-8.27,25.91h16.53l-28.62,89.18h29.89l28.62-89.18h16.37Z"/>
  <path class="st0" d="M1137,235.08l.8-2.86.64-2.86.48-2.7.48-2.7.16-2.54.16-2.54v-2.39l-.16-2.38-.16-2.39-.48-2.07-.48-2.23-.64-1.91-.8-2.07-.95-1.75-1.11-1.75-1.27-1.75-1.27-1.59-1.43-1.43-1.59-1.27-1.75-1.27-1.91-1.11-1.91-1.11-2.07-.8-2.22-.95-2.39-.64-2.39-.48-2.54-.48-2.7-.48-2.7-.16-2.86-.16-3.02-.16-2.7.16-2.7.16-2.7.32-2.54.32-2.7.64-2.54.64-2.54.64-2.54.95-2.55.95-2.54,1.11-2.38,1.27-1.91,1.11,2.07-6.52h-29.09l-37.04,115.1h30.05l17.01-52.62.79-2.7.95-2.54.96-2.39.8-2.38.95-2.23.95-2.07,1.11-2.07.95-1.91.96-1.75,1.11-1.75.96-1.59,1.11-1.43.96-1.27,1.11-1.27.95-1.11.96-.95,2.23-1.91,2.07-1.59,2.38-1.27,2.54-1.11,2.7-.79,2.86-.64,3.18-.48,3.34-.16,3.02.16,2.7.32,2.38.64,2.07.64,1.75.95,1.43,1.11,1.27,1.27.96,1.59.63,1.75.48,2.07.32,2.23v2.7l-.32,3.02-.48,3.34-.95,3.5-1.11,3.97-19.55,60.73h30.21l20.82-65.02.95-2.86Z"/>
  <path class="st0" d="M892.82,217.59l2.22-.79,2.39-.8,2.7-.64,3.02-.48,7.63-.64,8.9-28.3-6.99.32-2.54.16-2.38.32-2.39.48-2.39.64-2.39.64-2.22.79-2.39.95-2.22,1.11-2.23,1.11-1.59.95,1.75-5.56h-28.77l-36.88,115.1h30.05l20.35-63.43,1.27-3.5,1.11-3.02,1.43-2.7,1.27-2.54,1.43-2.07,1.59-1.91,1.43-1.59,1.43-1.43,1.59-1.11,1.91-1.11,1.91-.95Z"/>
  <path class="st0" d="M827.96,187.87l-17.01,53.1-.95,3.02-.95,2.7-.96,2.54-.79,2.39-.8,2.07-.8,1.75-.63,1.59-.64,1.43-.64,1.27-.63,1.11-.8,1.11-.64,1.11-.63,1.11-.8.95-.63.8-.8.95-1.27,1.27-1.27,1.43-2.86,2.23-1.27.95-1.59.95-1.43.8-1.59.79-1.43.64-1.59.64-1.75.48-1.59.48-1.59.32-1.75.16-1.75.16-1.75.16-2.7-.16-2.54-.32-2.07-.64-1.75-.63-1.59-.95-1.27-1.27-1.11-1.27-.95-1.75-.32-.8-.32-.95-.32-1.11-.16-1.11-.16-1.27v-3.97l.16-1.59.16-1.43.32-1.75.32-1.75.32-1.75.48-1.91.64-1.91.64-2.07,19.24-60.09h-30.05l-20.98,65.66-.95,2.86-.8,2.86-.64,2.86-.48,2.7-.32,2.54-.32,2.7-.16,2.39v2.39l.16,2.38.16,2.23.32,2.23.64,2.22.64,1.91.8,2.07.79,1.75,1.11,1.91,1.11,1.59,1.43,1.59,1.43,1.59,1.43,1.27,1.75,1.27,1.75,1.11,1.91,1.11,2.07.95,2.07.8,2.22.64,2.39.63,2.54.48,2.54.32,2.54.32,2.86.16h5.4l2.7-.16,2.54-.32,2.7-.48,2.54-.48,5.09-1.59,2.54-.95,2.54-.95,2.38-1.27,2.54-1.27,1.27-.8-1.91,5.88h29.09l37.04-115.1h-29.89Z"/>
  <path class="st0" d="M583.46,153.37h-31.63l-48.49,149.59h82.03l8.9-27.98h-50.24l39.43-121.61Z"/>
  <path class="st0" d="M506.83,119.19h-85.53c.8.64,1.59,1.27,2.39,2.07h79.49c1.27-.8,2.38-1.43,3.66-2.07"/>
  <path class="st0" d="M527.97,103.45h-117.8c.64,1.27,1.11,2.39,1.75,3.66h112.08c1.27-1.27,2.7-2.38,3.97-3.66"/>
  <path class="st0" d="M541.17,87.71h-134.17c0,1.75.16,3.5.48,5.09h130.04c1.27-1.59,2.54-3.34,3.66-5.09"/>
  <path class="st0" d="M549.44,72.13h-140.69c-.64,2.23-.95,4.45-1.27,6.52h139.1c1.11-2.07,2.07-4.29,2.86-6.52"/>
  <path class="st0" d="M553.41,56.4h-138.62c-1.43,2.7-2.7,5.4-3.66,8.11h140.85c.64-2.7,1.11-5.4,1.43-8.11"/>
  <path class="st0" d="M418.28,50.35h135.6c0-3.34-.32-6.52-.95-9.7h-127.5c-2.7,3.18-5.09,6.36-7.15,9.7"/>
  <path class="st0" d="M429.41,36.21h122.41c-1.27-3.97-3.02-7.79-5.41-11.29h-104.44c-4.61,3.5-8.74,7.31-12.56,11.29"/>
  <path class="st0" d="M527.82,9.34h-57.23c-8.74,3.02-17.01,7.47-24.64,12.72h98.4c-4.29-5.25-9.86-9.7-16.53-12.72"/>
  <path class="st0" d="M500.95,3.78c-8.74,0-17.65,1.43-26.23,4.13h49.92c-6.99-2.7-14.94-4.13-23.69-4.13"/>
  <path class="st0" d="M695.22,252.41l-1.75,3.02-2.07,2.86-2.39,2.7-2.54,2.7-3.02,2.7-3.34,2.54-3.34,2.22-3.5,2.07-3.34,1.59-3.34,1.43-3.34.95-3.18.8-3.34.48-3.5.16h-1.75l-1.75-.16-1.75-.16-1.75-.32-1.59-.32-1.43-.48-1.59-.48-1.27-.48-1.43-.64-1.27-.8-1.11-.8-1.27-.8-1.11-.95-.95-1.11-.95-.95-.95-1.27-.95-1.27-.79-1.27-.64-1.27-.64-1.43-.48-1.27-.32-1.43-.32-1.43-.16-1.43-.16-1.59v-3.18l.16-1.59.32-1.75.32-1.59.48-1.91.48-1.75.64-1.75.64-1.59.8-1.75.79-1.59.8-1.59.95-1.43.95-1.43,2.22-2.86,1.27-1.43,1.27-1.27,1.27-1.43,1.43-1.27,1.43-1.27,1.59-1.27,1.75-1.11,1.59-1.27,1.75-.95,1.75-1.11,1.59-.8,1.75-.95,1.75-.8,1.59-.63,1.75-.64,1.75-.48,1.59-.48,1.75-.48,1.75-.32,1.75-.16,1.91-.32h1.75l1.75-.16,3.5.16,3.18.48,3.02.79,2.7,1.11,2.54,1.27,2.39,1.75,2.07,2.07,1.91,2.38.79,1.27.8,1.27.63,1.27.64,1.43.48,1.27.32,1.43.32,1.43.32,1.59v1.43l.16,1.59-.16,1.59-.16,1.59-.16,1.59-.32,1.75-.48,1.59-.48,1.75-1.27,3.34-1.43,3.02ZM715.56,187.87l-2.54,7.79-1.11-.95-2.07-1.59-2.07-1.27-2.23-1.27-2.38-1.11-2.39-1.11-2.54-.8-2.7-.79-2.7-.48-2.86-.48-3.02-.32-3.02-.16-3.18-.16-3.5.16-3.34.16-3.5.32-3.34.48-3.34.64-3.18.8-3.18.8-3.18,1.11-3.18,1.11-3.18,1.27-3.18,1.43-3.18,1.75-3.02,1.75-3.18,1.91-3.02,1.91-3.02,2.22-2.86,2.07-2.7,2.23-2.54,2.22-4.77,4.77-2.39,2.54-2.07,2.54-4.13,5.4-1.75,2.86-1.75,2.7-1.59,2.86-1.43,2.86-1.27,3.02-1.11,2.86-1.11,3.02-.95,3.18-.8,3.18-.63,3.02-.32,3.02-.32,2.86-.16,2.86v2.86l.32,2.7.32,2.7.48,2.54.79,2.54.95,2.54.95,2.39,1.27,2.39,1.27,2.22,1.59,2.23,1.75,2.07,1.75,1.91,1.91,1.75,2.07,1.75,2.22,1.59,2.23,1.43,2.54,1.27,2.38,1.11,2.7,1.11,2.7.8,2.86.79,3.02.64,3.18.48,3.18.32,3.18.16h6.52l3.02-.16,3.02-.32,3.02-.48,3.02-.64,2.86-.79,3.02-.8,6.04-2.22,3.02-1.27,3.02-1.27,2.86-1.59,1.59-.8-2.7,7.95h30.36l36.88-115.1h-30.21Z"/>
  <path class="st0" d="M930.65,230.95l2.23-2.54,2.07-2.39,2.39-2.07,2.39-2.07,2.54-1.91,2.7-1.59,2.7-1.59,2.86-1.27,2.7-1.11,2.86-.95,2.86-.64,3.02-.48,2.86-.32,3.18-.16,2.86.16,2.7.16,2.55.64,2.22.64,2.22.79,1.91,1.11,1.91,1.27,1.59,1.59,1.43,1.59,1.27,1.75,1.11,2.07.96,2.22.64,2.22.48,2.54v.48h-61.21v-.16ZM1008.39,268.94l6.52-8.11h-33.07l-3.97,3.98-1.75,1.59-1.91,1.59-1.91,1.59-1.91,1.27-1.91,1.27-2.07,1.11-2.22,1.11-2.22.8-2.07.8-2.23.79-2.23.48-2.23.48-2.22.32-2.23.16-2.38.16-3.02-.16-3.02-.32-2.7-.64-2.54-.79-2.39-.95-2.07-1.27-2.07-1.43-1.75-1.75-1.59-1.91-1.27-2.07-1.11-2.07-.8-2.39-.63-2.38-.16-2.7-.16-.79h96.34l2.39-7.15.8-2.86.79-2.86.64-2.7.64-2.54.48-2.54.32-2.54.32-2.54.16-2.23v-4.61l-.32-2.23-.16-2.23-.95-4.13-.48-2.07-.8-2.07-1.27-3.02-1.59-2.86-1.91-2.7-1.91-2.54-2.22-2.38-2.54-2.23-2.54-2.07-2.86-1.75-1.59-.95-1.59-.8-1.43-.63-1.75-.8-1.59-.64-1.75-.48-1.59-.64-1.91-.48-1.75-.32-1.75-.48-1.91-.16-1.91-.32-3.82-.32-2.07-.16h-2.07l-3.34.16-3.5.16-3.34.32-3.34.64-3.5.64-3.34.8-3.34.95-3.34,1.11-3.34,1.27-3.34,1.43-3.18,1.59-3.18,1.75-3.18,1.75-3.18,2.07-3.18,2.07-3.02,2.22-5.4,4.45-2.54,2.22-2.54,2.39-2.39,2.54-2.22,2.38-2.07,2.54-2.07,2.7-1.91,2.54-1.75,2.7-1.75,2.86-1.43,2.7-1.43,2.86-1.27,2.86-1.27,3.02-.95,3.02-.8,2.86-.79,2.86-.48,2.86-.48,2.86-.16,2.86v5.72l.32,2.7.32,2.86.63,2.54.64,2.7.8,2.38,1.11,2.39,1.11,2.39,1.27,2.22,1.43,2.23,1.59,2.07,1.91,2.07,1.75,1.91,2.07,1.75,2.07,1.59,2.22,1.43,2.38,1.43,2.54,1.11,2.54,1.11,2.7.95,2.86.79,2.86.64,3.02.48,3.18.32,3.34.16,3.34.16h2.54l2.54-.16,2.54-.16,2.39-.32,2.54-.32,2.54-.48,2.39-.48,2.54-.64,2.39-.64,2.54-.79,2.39-.8,2.38-.95,2.54-.95,2.39-1.11,2.39-1.11,2.23-1.27,2.38-1.27,2.39-1.43,2.23-1.43,2.22-1.59,2.23-1.59,2.07-1.59,2.22-1.75,2.07-1.75,2.07-1.91,2.07-1.91,1.91-1.91,2.07-2.07,1.91-2.07,1.91-2.23,1.75-2.22Z"/>
</svg>