<?xml version="1.0" encoding="UTF-8"?>
<svg id="Camada_2" xmlns="http://www.w3.org/2000/svg" version="1.1" viewBox="0 0 593.94 50.87">
  <!-- Generator: Adobe Illustrator 30.3.0, SVG Export Plug-In . SVG Version: 2.1.3 Build 182)  -->
  <defs>
    <style>
      .st0 {
        fill: #ff7e27;
      }
    </style>
  </defs>
  <g id="Camada_2-2">
    <path class="st0" d="M446.1,41.79h-25.01l1.6-12.04h21.16l1.19-9.06h-21.15l1.54-11.54h24.56l11.73-.02-5.56,41.71h11.32l5.55-41.71h13.76L487.98,0h-85.7l-18.92,19.1c-.57.57-1.54.09-1.43-.71l2.51-18.39h-11.24l-6.25,46.61c-.11.84-1.25,1.01-1.6.24l-7.91-17.42c7.63-2.53,12.12-8.61,11.48-15.61-.38-4.15-2.79-13.81-16.94-13.81h-20.06l-5.39,40.24c-.12.92-1.42.99-1.65.1L314.52,0h-8.9l-20.94,40.27c-.44.84-1.71.43-1.58-.5L288.44.02h-10.92l-16.6,24.77c-.38.57-1.24.47-1.48-.16L249.86.02h-20.7l-11.1,16.59c-.37.55-1.2.48-1.47-.13L209.29.02h-20.22l-3.68,27.77c-.11.8-1.17,1.01-1.57.3L168.12.03h-9.48l-5.4,40.23c-.12.92-1.42.99-1.65.1L141.25.03h-8.9l-24.18,46.48c-1.56,3.09-2.21,4.33-2.21,4.33h12.85c4.79-10.26,11.75-13.97,18.66-16.22.89-.29,1.79.24,1.99,1.16l3.32,15.09h20.36l4.1-30.22,16.71,29.98.13.24h9.49l6.08-45.35,10.66,24.48-2.83,20.87h11.32l2.77-20.42,17.21-25.94-6.22,46.36h11.32l3.81-28.39,7.44,17.32h7.56l11.42-16.99-3.8,28.07h11.32v-.02l10.04.02c2.93-8.97,12.97-14.22,20.59-17.28l3.81,17.29h20.35l2.8-20.19h7.15l8.36,20.19h22.89l2.01-15.6,7.62-7.18,11.78,22.77h45.9l1.19-9.06-.02-.03ZM137.22,31.63c-4.2.61-7.89,1.56-11.12,2.71l8.98-18.43,3.15,14.29c.15.67-.32,1.32-1.01,1.42h0ZM310.41,31.31c-4.06.58-7.65,1.46-10.81,2.55l8.75-17.96,3.08,13.97c.15.68-.33,1.34-1.02,1.44ZM349.19,22.03h-8.9l1.76-12.88h9.03c3.93,0,6.27,1.87,6.58,5.25.17,1.83-.48,3.75-1.73,5.12-1.5,1.64-3.83,2.51-6.73,2.51h-.01ZM409.44,43.93c-.11.81-1.19,1.01-1.58.28l-12.14-22.84,17.65-18.2c.57-.58,1.55-.11,1.44.7l-5.37,40.06Z"/>
  </g>
</svg>