<?xml version="1.0" encoding="UTF-8"?>
<svg id="Camada_1" xmlns="http://www.w3.org/2000/svg" version="1.1" viewBox="0 0 512 512">
  <!-- Generator: Adobe Illustrator 30.2.1, SVG Export Plug-In . SVG Version: 2.1.1 Build 1)  -->
  <defs>
    <style>
      .st0 {
        fill: #f97316;
      }

      .st1 {
        fill: #0f2842;
      }
    </style>
  </defs>
  <rect class="st1" width="512" height="512" rx="94.62" ry="94.62"/>
  <g>
    <path class="st0" d="M393.76,165.24c-7.62-4.77-15.91-9.3-23.79-13.8l-47.23-26.96-34.94-20c-11.23-6.44-21.54-14.32-35.34-12.49-4.39.38-8.67,1.57-12.61,3.53-5.11,2.48-12.44,7.02-17.49,9.93l-33.14,18.99-46.57,26.55c-7.78,4.45-15.54,8.87-23.3,13.34-6.16,3.57-8.9,10.63-8.36,17.55.32,3.99,2.03,8.27,4.96,11.09,3.91,2.83,9.64,5.84,13.98,8.33l32.77,18.65,54.19,30.83,15.52,8.87c10.21,5.84,15.14,8.78,27.5,7.9,11.64-1.77,24.85-10.89,35.32-16.89l39.05-22.16,38.71-22.05c6.36-3.59,20.2-10.41,24.75-15.37,5.79-6.3,3.93-21.62-3.97-25.87h0v.02ZM285.07,227.51c-6.16,3.53-20.64,12.78-26.78,13.94-1.91,0-5.93.06-7.62-.8-21.2-10.89-42.16-23.95-62.92-35.52,9.07-5.59,60.09-35.54,66.95-36.99,3.63-.22,6.3,1.08,9.39,2.83,6.22,3.47,12.44,7.02,18.63,10.55,13.8,7.76,27.58,15.63,41.27,23.56-12.92,7.56-25.9,15.03-38.93,22.42h.02,0ZM349.84,190.61c-7.08-3.33-17.09-9.35-24.05-13.29l-39.51-22.33c-6.3-3.57-20.64-12.61-26.75-13.84-9.39-1.08-14.14,2.39-21.94,6.88-3.97,2.28-7.93,4.65-11.89,6.94l-37.65,21.36c-7.56,4.31-18.14,10.59-25.75,14.24-5.56-2.63-13.46-7.64-19.31-10.79,6.36-3.43,13.2-7.64,19.6-11.27l58.33-33.37c5.73-3.27,26.96-16.11,32.03-17.31,2.25-.12,5.99-.32,8.1.62,4.31,1.97,8.78,4.62,12.92,6.96l23.61,13.58c23.81,13.49,47.55,27.1,71.19,40.82-6.19,3.47-12.75,7.56-18.97,10.79l.02.02h-.01Z"/>
    <path class="st0" d="M398.61,322.8c-1-1.74-2.31-3.25-3.91-4.48-2.03-1.57-4.45-2.77-6.62-4.08-9.87-5.88-20.25-11.21-30.01-17.25l-54.5,30.97c-20.62,11.87-42.67,29.69-66.65,16.45-7.64-4.23-15.23-8.58-22.82-12.92l-43.78-24.99c-2.85-1.63-13.92-8.58-16.49-9.44-7.34,4.28-14.69,8.47-22.08,12.64-6.1,3.45-14.66,6.98-18.39,13.06-4.37,7.02-3.05,19.25,4.23,23.9,5.62,3.59,11.98,7.02,17.89,10.41l34.74,19.94,42.32,24.21c7.96,4.57,26.3,16.09,33.94,17.95,6.96,1.71,14.26,1.43,21.08-.8,6.42-2.11,23.87-12.66,30.75-16.6l59.81-34.17,23.33-13.44c7.9-4.51,16.51-7.44,19.03-16.91,1.34-4.91.66-10.09-1.88-14.52l.02.06h-.01ZM282.76,381.56c-6.78,3.67-14,8.58-21.02,11.69-8.61,3.79-16.34-2.11-23.73-6.36l-17.91-10.21-77.2-44.47c6.36-3.33,12.92-7.53,19.31-10.61,5.02,1.94,19.42,10.59,24.59,13.52l43.27,24.65c5.96,3.43,14.66,8.93,20.84,11.07,7.7,2.65,14.24-1.74,20.7-5.45l11.29-6.36c6.5,3.67,13,7.42,19.45,11.19-6.5,3.59-13.18,7.62-19.62,11.35h.04ZM330.02,354.46c-5.68-2.85-13.68-7.76-19.42-11.01,7.34-4.45,15.46-8.87,22.93-13.15,4.53-2.59,11.47-6.7,16.03-8.78,2.63.88,16.31,8.99,19.37,10.73-12.92,7.5-25.9,14.89-38.91,22.22h0Z"/>
    <path class="st0" d="M357.8,221c8.22,5.02,17.37,9.99,25.81,14.78,5.08,2.83,11.89,5.9,15,10.95,5.33,8.7,2.14,20.4-6.76,25.35-8.87,4.93-17.75,9.95-26.58,14.98l-53.03,30.15-25.47,14.58c-5.05,2.91-10.03,5.88-15.26,8.53-20.68,10.49-36.56-2.93-54.02-12.89l-52.25-29.83c-11.09-6.16-22.14-12.38-33.14-18.68-3.43-1.94-10.75-5.79-13.78-7.78-2.05-1.34-3.77-3.13-4.99-5.25-2.51-4.45-3.19-9.73-1.85-14.69,2.54-9.21,10.95-12.07,18.63-16.43l23.47-13.44c1.83-.02,22.45,12.32,25.41,14.06-3.31,2.28-9.04,5.36-12.64,7.42l-23.39,13.34,75.21,42.92c6.02,3.43,12.04,6.98,18.05,10.35,7.56,4.25,15.26,10.43,24.41,7.64,4.57-1.4,9.3-4.48,13.54-6.88l21.56-12.35c24.07-13.84,49-28.36,73.25-41.7-11.98-7.02-24.05-13.88-36.16-20.64,6.13-4.23,18.17-10.63,25.01-14.44l-.06-.06h.04Z"/>
    <path class="st0" d="M197.42,246.07c2,.72,8.04,4.31,10.19,5.5l18.19,10.39c10.29,5.88,17.97,11.03,30.49,10.99,12.98-.08,22.3-6.76,33.06-12.92,8.18-4.79,16.45-9.44,24.79-13.98,3.19,1.57,8.13,3.63,9.95,6.82,3.63,6.36-7.1,10.69-11.35,13-11.33,6.24-22.48,12.8-33.74,19.14-5.79,2.99-11.87,7.42-17.95,9.55-9.35,3.27-19.88-4.77-27.52-9.07l-26.04-14.74c-5.9-3.39-11.89-6.74-17.69-10.27-2-1.26-3.11-4.33-2.37-6.56,1.26-3.77,6.68-6.02,10.01-7.82l-.02-.02h0Z"/>
  </g>
</svg>