<?xml version="1.0" encoding="UTF-8"?>
<svg id="Camada_1" xmlns="http://www.w3.org/2000/svg" version="1.1" viewBox="0 0 1030 300">
  <!-- Generator: Adobe Illustrator 30.2.1, SVG Export Plug-In . SVG Version: 2.1.1 Build 1)  -->
  <defs>
    <style>
      .st0 {
        fill: #f97316;
      }

      .st1 {
        fill: #0f2842;
      }
    </style>
  </defs>
  <g>
    <path class="st0" d="M254.11,72.67c-6.49-4.06-13.56-7.92-20.27-11.76l-40.24-22.97-29.77-17.04c-9.57-5.49-18.35-12.2-30.11-10.64-3.74.32-7.39,1.34-10.74,3.01-4.35,2.11-10.6,5.98-14.9,8.46l-28.24,16.18-39.68,22.62c-6.63,3.79-13.24,7.56-19.85,11.37-5.25,3.04-7.58,9.06-7.12,14.95.27,3.4,1.73,7.05,4.23,9.45,3.33,2.41,8.21,4.98,11.91,7.1l27.92,15.89,46.17,26.27,13.22,7.56c8.7,4.98,12.9,7.48,23.43,6.73,9.92-1.51,21.17-9.28,30.09-14.39l33.27-18.88,32.98-18.79c5.42-3.06,17.21-8.87,21.09-13.1,4.93-5.37,3.35-18.42-3.38-22.04h0v.02ZM161.5,125.72c-5.25,3.01-17.59,10.89-22.82,11.88-1.63,0-5.05.05-6.49-.68-18.06-9.28-35.92-20.41-53.61-30.26,7.73-4.76,51.2-30.28,57.04-31.52,3.09-.19,5.37.92,8,2.41,5.3,2.96,10.6,5.98,15.87,8.99,11.76,6.61,23.5,13.32,35.16,20.07-11.01,6.44-22.07,12.81-33.17,19.1h.02,0ZM216.69,94.28c-6.03-2.84-14.56-7.97-20.49-11.32l-33.66-19.03c-5.37-3.04-17.59-10.74-22.79-11.79-8-.92-12.05,2.04-18.69,5.86-3.38,1.94-6.76,3.96-10.13,5.91l-32.08,18.2c-6.44,3.67-15.46,9.02-21.94,12.13-4.74-2.24-11.47-6.51-16.45-9.19,5.42-2.92,11.25-6.51,16.7-9.6l49.7-28.43c4.88-2.79,22.97-13.73,27.29-14.75,1.92-.1,5.1-.27,6.9.53,3.67,1.68,7.48,3.94,11.01,5.93l20.12,11.57c20.29,11.49,40.51,23.09,60.66,34.78-5.27,2.96-10.86,6.44-16.16,9.19l.02.02h0Z"/>
    <path class="st0" d="M258.24,206.91c-.85-1.48-1.97-2.77-3.33-3.82-1.73-1.34-3.79-2.36-5.64-3.48-8.41-5.01-17.25-9.55-25.57-14.7l-46.44,26.39c-17.57,10.11-36.36,25.3-56.79,14.02-6.51-3.6-12.98-7.31-19.44-11.01l-37.3-21.29c-2.43-1.39-11.86-7.31-14.05-8.04-6.25,3.65-12.52,7.22-18.81,10.77-5.2,2.94-12.49,5.95-15.67,11.13-3.72,5.98-2.6,16.4,3.6,20.36,4.79,3.06,10.21,5.98,15.24,8.87l29.6,16.99,36.06,20.63c6.78,3.89,22.41,13.71,28.92,15.29,5.93,1.46,12.15,1.22,17.96-.68,5.47-1.8,20.34-10.79,26.2-14.14l50.96-29.11,19.88-11.45c6.73-3.84,14.07-6.34,16.21-14.41,1.14-4.18.56-8.6-1.6-12.37l.02.05h0ZM159.53,256.98c-5.78,3.13-11.93,7.31-17.91,9.96-7.34,3.23-13.92-1.8-20.22-5.42l-15.26-8.7-65.78-37.89c5.42-2.84,11.01-6.42,16.45-9.04,4.28,1.65,16.55,9.02,20.95,11.52l36.87,21c5.08,2.92,12.49,7.61,17.76,9.43,6.56,2.26,12.13-1.48,17.64-4.64l9.62-5.42c5.54,3.13,11.08,6.32,16.57,9.53-5.54,3.06-11.23,6.49-16.72,9.67h.03ZM199.8,233.89c-4.84-2.43-11.66-6.61-16.55-9.38,6.25-3.79,13.17-7.56,19.54-11.2,3.86-2.21,9.77-5.71,13.66-7.48,2.24.75,13.9,7.66,16.5,9.14-11.01,6.39-22.07,12.69-33.15,18.93h0Z"/>
    <path class="st0" d="M223.47,120.18c7,4.28,14.8,8.51,21.99,12.59,4.33,2.41,10.13,5.03,12.78,9.33,4.54,7.41,1.82,17.38-5.76,21.6-7.56,4.2-15.12,8.48-22.65,12.76l-45.18,25.69-21.7,12.42c-4.3,2.48-8.55,5.01-13,7.27-17.62,8.94-31.15-2.5-46.03-10.98l-44.52-25.42c-9.45-5.25-18.86-10.55-28.24-15.92-2.92-1.65-9.16-4.93-11.74-6.63-1.75-1.14-3.21-2.67-4.25-4.47-2.14-3.79-2.72-8.29-1.58-12.52,2.16-7.85,9.33-10.28,15.87-14l20-11.45c1.56-.02,19.13,10.5,21.65,11.98-2.82,1.94-7.7,4.57-10.77,6.32l-19.93,11.37,64.08,36.57c5.13,2.92,10.26,5.95,15.38,8.82,6.44,3.62,13,8.89,20.8,6.51,3.89-1.19,7.92-3.82,11.54-5.86l18.37-10.52c20.51-11.79,41.75-24.16,62.41-35.53-10.21-5.98-20.49-11.83-30.81-17.59,5.22-3.6,15.48-9.06,21.31-12.3l-.05-.05h.03Z"/>
    <path class="st0" d="M86.82,141.54c1.7.61,6.85,3.67,8.68,4.69l15.5,8.85c8.77,5.01,15.31,9.4,25.98,9.36,11.06-.07,19-5.76,28.17-11.01,6.97-4.08,14.02-8.04,21.12-11.91,2.72,1.34,6.93,3.09,8.48,5.81,3.09,5.42-6.05,9.11-9.67,11.08-9.65,5.32-19.15,10.91-28.75,16.31-4.93,2.55-10.11,6.32-15.29,8.14-7.97,2.79-16.94-4.06-23.45-7.73l-22.19-12.56c-5.03-2.89-10.13-5.74-15.07-8.75-1.7-1.07-2.65-3.69-2.02-5.59,1.07-3.21,5.69-5.13,8.53-6.66l-.02-.02h0Z"/>
  </g>
  <g>
    <path class="st1" d="M335.64,230.8V69.24h31.25v161.56h-31.25ZM433.31,230.8l-70.09-84.35,68.26-77.21h39.08l-76.06,83.89v-14.48l78.59,92.15h-39.78Z"/>
    <path class="st1" d="M482.72,230.8l65.03-161.56h25.52l64.81,161.56h-33.32l-50.09-132.59h11.49l-50.79,132.59h-32.66,0ZM517.18,200.69v-26.2h86.88v26.2h-86.88Z"/>
    <path class="st1" d="M666.78,230.8V69.24h31.25v161.56h-31.25Z"/>
    <path class="st1" d="M731.59,208.98l84.79-117.89h37.23l-84.79,117.89h-37.23ZM731.59,230.8v-21.82l23.45-5.74h96.74v27.58h-120.2v-.02h.01ZM736.43,96.83v-27.58h117.21v21.82l-23.67,5.74h-93.54v.02h0Z"/>
    <path class="st1" d="M951.52,233.11c-12.71,0-24.01-2.79-33.9-8.38-9.89-5.59-17.67-13.29-23.33-23.09-5.66-9.79-8.51-20.9-8.51-33.32v-99.05h31.25v99.98c0,7.19,1.48,13.41,4.47,18.62,2.99,5.2,7.12,9.23,12.42,12.05,5.27,2.84,11.15,4.25,17.57,4.25s12.42-1.41,17.47-4.25,9.09-6.85,12.05-12.05c2.99-5.2,4.47-11.32,4.47-18.37v-100.2h31.5v99.27c0,12.42-2.84,23.48-8.51,33.2-5.66,9.72-13.37,17.4-23.09,22.99s-21.02,8.38-33.9,8.38l.02-.02h.02Z"/>
  </g>
</svg>