<?xml version="1.0" encoding="UTF-8"?>
<svg id="layer" xmlns="http://www.w3.org/2000/svg" version="1.1" viewBox="0 0 652 652">
  <!-- Generator: Adobe Illustrator 30.3.0, SVG Export Plug-In . SVG Version: 2.1.3 Build 182)  -->
  <defs>
    <style>
      .st0 {
        fill: #fff;
      }
    </style>
  </defs>
  <path class="st0" d="M324,98.9c39.3,0,75.2,13.7,103.1,36.5-3.3-30.9,5.7-56.8,21.1-59.2,16.4-2.6,34,22.6,39.2,56.2,3.8,24.6-.2,46.8-8.8,58.1-2.3,3-4.6,9.1-3.1,13.1,5.8,15.9,8.7,33,8.7,50.8,0,40.4-15.9,77.3-42,104.9v54c.1,5.2-3.7,8.8-9,9h-24.4v-25c0-1.7-1.4-3.1-3.1-3.1h-1c-1.7,0-3.1,1.4-3.1,3.1v25h-33.3v-25c0-1.7-1.4-3.1-3.1-3.1h-1c-1.7,0-3.1,1.4-3.1,3.1v25h-33.3v-25c0-1.7-1.4-3.1-3.1-3.1h-1c-1.7,0-3.1,1.4-3.1,3.1v25h-33.3v-25c0-1.7-1.4-3.1-3.1-3.1h-1c-1.7,0-3.1,1.4-3.1,3.1v25h-33.3v-25c0-1.7-1.4-3.1-3.1-3.1h-1c-1.7,0-3.1,1.4-3.1,3.1v25h-25.2c-4.9-.1-8.1-4.4-8.2-9v-54c-26.1-27.7-42-64.5-42-104.9,0-17.7,3.4-34.6,8.7-50.6,1.9-5.8-1.5-10.9-3.7-13.7-8.7-11.2-12.3-33.4-8.5-57.7,5.2-33.6,22.8-58.7,39.2-56.2,15.5,2.4,24.4,28.5,21,59.5,27.6-23,63.7-36.8,103.1-36.8ZM403.6,313.2c24,0,43.5-27.2,43.5-60.7s-19.5-60.7-43.5-60.7-43.5,27.2-43.5,60.7,19.5,60.7,43.5,60.7h0ZM244.3,313.2c24,0,43.5-27.2,43.5-60.7s-19.5-60.7-43.5-60.7-43.5,27.2-43.5,60.7,19.4,60.7,43.5,60.7h0ZM323.8,330.8l-7.7,13.4-7.7,13.4h30.9l-7.7-13.4-7.8-13.4Z"/>
  <path class="st0" d="M153.1,489.9c-1.5,0-2.9-.5-3.9-1.6-1-1-1.6-2.4-1.6-3.9,0-1.4.5-2.7,1.6-3.8,1.1-1.1,2.4-1.7,3.9-1.7h39.1c1.9,0,3.6.4,5,1.3,1.4.8,2.2,2.3,2.1,3.9,0,1.1-.3,2.2-.9,3.2l-36.8,52.3h32.8c1.5,0,2.9.5,3.9,1.6,1,1,1.6,2.4,1.6,3.9,0,1.4-.5,2.7-1.6,3.8-1,1.1-2.4,1.7-3.9,1.7h-42.4c-2,0-3.6-.5-4.8-1.5-1.2-.9-1.8-2.3-1.8-3.8,0-1.2.3-2.2,1-3.2l36.7-52.1h-30v-.1ZM205.8,504.4c0-3.6.7-6.9,2-10.1s3.2-5.9,5.6-8.3c2.4-2.3,5.2-4.2,8.3-5.6,3.1-1.3,6.5-2,10.2-2s6.9.7,10.1,2c3.2,1.3,5.9,3.2,8.3,5.6,2.4,2.4,4.2,5.1,5.6,8.3,1.4,3.2,2.1,6.5,2.1,10.1v10.4c0,1.5-.5,2.9-1.6,3.9-1,1-2.4,1.6-3.9,1.6h-35.8v4.9c0,2,.4,3.9,1.2,5.8.8,1.8,1.9,3.4,3.3,4.8,1.3,1.4,3,2.5,4.8,3.2,1.9.8,3.8,1.2,5.8,1.2,6,.1,11.4-3.4,13.9-8.8l.1-.4c.4-1.1,1-1.9,1.9-2.5s2-1,3.1-.9c1.5,0,2.8.6,3.9,1.7,1,1,1.6,2.4,1.6,3.8,0,.7-.2,1.3-.4,2l-.3.6c-2,4.6-5.2,8.5-9.4,11.3-4.2,2.9-9,4.3-14.4,4.3-6.9,0-13.5-2.7-18.4-7.6-2.4-2.4-4.3-5.2-5.6-8.3-1.4-3.2-2.1-6.6-2.1-10.1l.1-20.9h0ZM216.8,509.3h30.3v-4.9c0-2-.4-3.9-1.2-5.8-.8-1.8-1.9-3.4-3.3-4.8-1.4-1.4-3-2.5-4.8-3.3-1.9-.8-3.8-1.2-5.8-1.2-6.1,0-11.6,3.6-14,9.2-.8,1.8-1.2,3.8-1.2,5.8v5h0ZM265.9,504.4c0-3.6.7-6.9,2-10.1s3.2-5.9,5.6-8.3c2.4-2.3,5.2-4.2,8.3-5.6,3.2-1.4,6.7-2.1,10.2-2,3.6,0,6.9.7,10.1,2s5.9,3.2,8.3,5.6,4.2,5.1,5.6,8.3c1.4,3.2,2.1,6.5,2.1,10.1v10.4c0,1.5-.5,2.9-1.6,3.9-1,1-2.4,1.6-3.9,1.6h-35.8v4.9c0,2,.4,3.9,1.2,5.8.8,1.8,1.9,3.4,3.3,4.8,1.3,1.4,3,2.5,4.8,3.2,1.9.8,3.8,1.2,5.8,1.2,6,.1,11.4-3.4,13.9-8.8l.2-.4c.4-1.1,1-1.9,1.9-2.5s2-1,3.1-.9c1.5,0,2.8.6,3.9,1.7,1,1,1.6,2.4,1.6,3.8,0,.7-.2,1.3-.4,2l-.3.6c-2,4.6-5.2,8.5-9.4,11.3-4.2,2.9-9,4.3-14.4,4.3-6.9,0-13.5-2.7-18.4-7.6-2.4-2.4-4.3-5.2-5.6-8.3-1.4-3.2-2.1-6.6-2.1-10.1v-20.9h0ZM276.9,509.3h30.3v-4.9c0-2-.4-3.9-1.2-5.8-.8-1.8-1.9-3.4-3.3-4.8s-3-2.5-4.8-3.3c-1.9-.8-3.8-1.2-5.8-1.2-6.1-.1-11.7,3.6-14,9.2-.8,1.8-1.2,3.8-1.2,5.8v5h0ZM320.7,545.1c0-1.5.5-2.9,1.6-3.9,1.1-1.1,2.3-1.6,3.9-1.6,1.4,0,2.7.5,3.8,1.6,1.1,1.1,1.7,2.4,1.7,3.9s-.5,2.8-1.6,3.9c-1,1-2.4,1.6-3.9,1.6-1.4,0-2.8-.6-3.8-1.6-1.2-1-1.8-2.4-1.7-3.9h0ZM375.4,459c0-1.5.5-2.9,1.6-3.9,1-1,2.4-1.6,3.9-1.6,1.4,0,2.7.5,3.8,1.6s1.7,2.4,1.7,3.9v66.1c0,3.6-.7,6.9-2.1,10.1-1.4,3.2-3.3,6-5.6,8.3-4.9,4.9-11.5,7.6-18.4,7.6-3.7,0-7-.7-10.2-2-3.1-1.3-5.9-3.2-8.3-5.6-4.9-4.8-7.7-11.5-7.7-18.4v-20.8c0-3.6.7-6.9,2.1-10.1s3.3-6,5.6-8.3c4.9-4.9,11.5-7.6,18.4-7.6,2.8,0,5.5.4,8,1.3,2.6.9,4.9,2.1,7.2,3.6v-24.2h0ZM345.1,525.2c0,8.3,6.8,15,15.1,15h.1c2,0,4-.4,5.9-1.1,1.8-.7,3.5-1.8,4.8-3.3,1.3-1.4,2.4-3,3.3-4.8.8-1.8,1.2-3.8,1.2-5.8v-20.8c0-2-.4-3.9-1.1-5.8-1.5-3.7-4.4-6.6-8.1-8.1-1.9-.8-3.9-1.2-5.9-1.2s-4,.4-5.8,1.2c-1.9.8-3.5,1.8-4.8,3.3-1.3,1.4-2.4,3-3.2,4.8-.8,1.8-1.2,3.8-1.2,5.8l-.3,20.8h0ZM395.3,504.4c0-6.9,2.7-13.6,7.7-18.4,2.4-2.4,5.2-4.2,8.3-5.6,3.2-1.4,6.7-2.1,10.2-2,6.9,0,13.5,2.7,18.4,7.6,2.4,2.4,4.2,5.1,5.6,8.3,1.4,3.2,2.1,6.5,2.1,10.1v20.8c0,3.6-.7,6.9-2,10.1-1.3,3.2-3.2,5.9-5.6,8.3-2.4,2.4-5.2,4.2-8.4,5.6-3.2,1.4-6.6,2-10.1,2-6.9,0-13.5-2.7-18.4-7.6-2.4-2.4-4.3-5.2-5.6-8.3-1.4-3.2-2.1-6.6-2.1-10.1l-.1-20.8h0ZM406.3,525.2c0,2,.4,3.9,1.2,5.8.8,1.8,1.9,3.4,3.2,4.8,1.3,1.4,3,2.5,4.8,3.3,1.9.8,3.8,1.2,5.8,1.2,6.1.1,11.7-3.6,14-9.2.8-1.8,1.2-3.8,1.2-5.8v-20.8c0-2-.4-3.9-1.2-5.8-.8-1.8-1.9-3.4-3.3-4.8s-3-2.5-4.8-3.3c-1.9-.8-3.8-1.2-5.8-1.2-8.3-.1-15.1,6.6-15.2,14.9v.1l.1,20.8h0ZM454.4,504.4c0-3.6.7-6.9,2-10.1s3.2-5.9,5.6-8.3c2.4-2.3,5.2-4.2,8.3-5.6,3.2-1.4,6.7-2.1,10.2-2,3.6,0,6.9.7,10.1,2s5.9,3.2,8.3,5.6,4.2,5.1,5.6,8.3c1.4,3.2,2.1,6.5,2.1,10.1v45.6c0,3.6-.7,6.9-2.1,10.1-1.3,3.1-3.3,5.9-5.6,8.3-2.4,2.4-5.2,4.3-8.3,5.6-3.2,1.3-6.5,2-10.1,2-1.5,0-2.9-.5-3.9-1.6-1-1-1.6-2.4-1.6-3.9s.5-2.8,1.6-3.9c1-1,2.4-1.6,3.9-1.6,2,0,4-.4,5.8-1.2,1.8-.7,3.5-1.8,4.8-3.3,1.3-1.4,2.4-3,3.3-4.8.8-1.8,1.2-3.7,1.2-5.8v-3.6c-4.5,3.2-9.6,4.8-15.2,4.8-3.6,0-6.9-.7-10.1-2-3.1-1.3-5.9-3.2-8.3-5.6-2.4-2.4-4.3-5.2-5.6-8.3-1.4-3.2-2.1-6.6-2.1-10.1l.1-20.7h0ZM465.4,525.2c0,2,.4,3.9,1.2,5.8.8,1.8,1.9,3.4,3.3,4.8,1.3,1.4,3,2.5,4.8,3.3,3.7,1.5,7.9,1.6,11.6.1,1.8-.7,3.4-1.7,4.8-3,1.3-1.3,2.4-2.8,3.2-4.6.8-1.7,1.3-3.6,1.4-5.6v-21.5c0-2-.4-3.9-1.2-5.8-.8-1.8-1.9-3.4-3.3-4.8s-3-2.5-4.8-3.3c-1.9-.8-3.8-1.2-5.8-1.2-6.1,0-11.6,3.6-14,9.2-.8,1.8-1.2,3.8-1.2,5.8v20.8h0Z"/>
</svg>