<?xml version="1.0" encoding="utf-8"?>
<!-- Generator: Adobe Illustrator 25.1.0, SVG Export Plug-In . SVG Version: 6.00 Build 0)  -->
<svg version="1.1" id="Camada_1" xmlns="http://www.w3.org/2000/svg" xmlns:xlink="http://www.w3.org/1999/xlink" x="0px" y="0px"
	 viewBox="0 0 129.9 82.8" style="enable-background:new 0 0 129.9 82.8;" xml:space="preserve">
<style type="text/css">
	.st0{fill-rule:evenodd;clip-rule:evenodd;fill:#FFFFFF;}
	.st1{fill:#E42313;}
</style>
<g>
	<path class="st0" d="M15.5,8.5c0-0.6,0.2-0.7,0.9-0.7h6.9c0.6,0,0.9,0.2,0.8,0.9v8.5c0,0,41.7-18.3,104-15.9c0.2,0,0.8,0.1,0.8,0.6
		v4.9c0,0-0.2,0.4-0.4,0.4C123,7.1,66.3,6.5,24,27.9v21.3c0,0.6-0.2,0.8-0.6,0.7h-7.2c-0.4,0-0.6-0.2-0.6-0.6V32.1
		c0,0-3.6,0.6-11.4,11.4c0,0-0.4,0.3-0.7,0c-1.9-2-8.8-10.5,12-23.4V8.5z"/>
	<path class="st0" d="M41.1,24.1c-0.5-0.1-1-0.1-1.5-0.1c-1.2,0-2.3,0.2-3.3,0.3c-2.3,0.5-4.1,1.5-5.7,3.1c-0.3,0.3-0.6,0.7-0.9,1.1
		c-1.6,2.2-2.4,4.9-2.4,8.4c0,4,1.1,7.1,3.5,9.2c2.3,2.2,5.6,3.2,9.9,3.2c1.7,0,3.2-0.2,4.5-0.5c1-0.2,1.9-0.5,3-0.9
		c0.1,0,0.1,0,0.2-0.1c0.1,0,0.2-0.1,0.2-0.1c0.5-0.2,1-0.8,1.1-2.2v-0.1v-2.4c0,0,0,0,0-0.1c-0.1-0.5-0.6-1.1-1.3-0.8
		c-0.6,0.2-0.8,0.3-2.2,0.7c-0.5,0.2-1,0.3-1.5,0.4c-1.1,0.4-2.2,0.6-3.3,0.6c-2.3,0-4.1-0.5-5.3-1.5c-1.2-1-1.8-2.4-1.9-4.4h13.1
		h1.7c0.6,0,1-0.3,1.1-0.9V36v-0.6c0-3.7-0.9-6.6-2.7-8.5C46,25.3,43.9,24.4,41.1,24.1 M36.8,33.7h-2.4c0.1-1.7,0.6-2.9,1.5-3.6
		S37.7,29,39,29c0.3,0,0.7,0,1,0.1c0.9,0.2,1.6,0.6,2.1,1.1c0.6,0.8,1.1,2,1.1,3.6L36.8,33.7L36.8,33.7z"/>
	<path class="st0" d="M67.7,24.2c-1.4,0-2.7,0.2-3.8,0.9c-1.1,0.6-2.4,1.4-3.6,2.4v-1.8c0-0.6-0.3-0.9-1.3-0.9h-4.9
		c-0.6,0.1-0.9,0.4-1,0.9v21.8c0.1,1.1,0.3,1.3,0.9,1.2h5.4c0.9-0.1,0.8-0.5,0.9-1.1V32.2l0,0V32v-0.1c0.1-0.1,0.2-0.2,0.5-0.3l0,0
		l0,0c0.2-0.1,0.3-0.2,0.6-0.3c0.8-0.4,2-0.9,3.4-0.7c0.6,0,1.2,0.2,1.6,0.3c0.5,0.2,0.9,0.6,1.1,1.1c0.2,0.5,0.4,1.1,0.5,2.1
		c0.1,1,0.2,1.9,0.2,2.9v10.9c0.1,0.7,0.2,0.9,0.9,1h5.4c0.6,0,0.9-0.2,0.8-0.9V33.2c0-3-0.6-5.3-2-6.8C71.9,24.9,70,24.2,67.7,24.2
		"/>
	<path class="st0" d="M100.5,15.6h-5.1c-0.6,0.1-0.9,0.3-1,0.8v9.4c-0.9-0.5-1.8-0.9-2.6-1.1c-0.8-0.3-1.9-0.5-3.2-0.5
		s-2.5,0.3-3.8,0.9c-1.3,0.6-2.4,1.5-3.2,2.5c-1,1.1-1.7,2.5-2.2,4.1c-0.6,1.5-0.8,3.4-0.8,5.4c0,3.8,0.8,6.9,2.4,9.1
		c1.6,2.3,3.7,3.4,6.4,3.4c1.4,0,2.6-0.2,3.6-0.7c1.1-0.5,2.2-1.3,3.4-2.4v2c0,0.4,0.2,0.5,0.5,0.5h6.1c0.3,0,0.6-0.2,0.5-0.6v-32
		C101.5,15.7,101.1,15.5,100.5,15.6 M94.5,42.2c-0.6,0.4-1.1,0.8-1.9,1.1s-1.4,0.4-2,0.4c-1.6,0-2.8-0.6-3.6-1.6
		c-0.7-1.1-1.1-2.8-1.1-5.1c0-2.3,0.5-4,1.4-5.3c0.9-1.2,2.4-1.9,4.1-1.9c0.5,0,1,0.1,1.5,0.2c0.6,0.1,1.1,0.2,1.5,0.5L94.5,42.2
		L94.5,42.2z"/>
	<path class="st0" d="M124.1,26c-1.8-1.4-4.6-2-8.7-2c-1.7,0-3.3,0.2-5,0.4c-1.1,0.2-1.8,0.4-2.3,0.6c-0.6,0.2-1.2,0.6-1.3,2.4v2.4
		c0,0.5,0.6,1.1,1.3,0.9c0.6-0.2,0.8-0.3,2.2-0.7c1.3-0.4,2.5-0.6,3.7-0.6c1.9,0,3.4,0.2,4.4,0.7c1,0.5,1.5,1.5,1.5,2.8v0.2
		c-2.1,0.2-4.1,0.3-6,0.6c-1.9,0.2-3.6,0.7-4.9,1.4c-1.3,0.6-2.4,1.5-3.1,2.7s-1.1,2.5-1.1,4.3c0,2.2,0.7,4,2.1,5.4
		c1.4,1.4,3.2,2.1,5.3,2.1c0.9,0,1.7-0.1,2.4-0.2c0.7-0.2,1.5-0.4,2.2-0.7c0.5-0.2,1.1-0.6,1.6-1.1c0.6-0.4,1.1-0.8,1.4-1.1v1.6
		c0,0.6,0.3,0.9,0.9,0.9h5.2c0.6-0.1,0.8-0.4,0.9-1.1V32.4C126.7,29.5,125.9,27.4,124.1,26 M119.8,42.5c-0.6,0.5-1.2,0.9-1.9,1.2
		c-0.7,0.3-1.5,0.5-2.1,0.5c-0.9,0-1.5-0.1-1.9-0.2c-0.4-0.2-0.8-0.3-1.1-0.6c-0.3-0.3-0.5-0.6-0.6-0.9c-0.1-0.3-0.1-0.7-0.1-1.2
		c0-0.7,0.2-1.4,0.6-1.9c0.4-0.5,0.9-0.8,1.6-1.1c0.6-0.2,1.4-0.4,2.5-0.5c1.1-0.2,2.1-0.2,3.1-0.3L119.8,42.5L119.8,42.5z"/>
	<path class="st1" d="M128.8,76.2V62.5c0-2.8-2.3-5.1-5.1-5.1H8.9c-2.8,0-5.1,2.3-5.1,5.1v13.7c0,2.8,2.3,5.1,5.1,5.1h114.7
		C126.5,81.3,128.8,79.1,128.8,76.2"/>
	<path class="st0" d="M40.2,76.1C40.2,76.2,40.1,76.2,40.2,76.1c-0.5,0.2-1,0.2-1.4,0.2c-0.5,0.1-1.1,0.1-1.8,0.1
		c-1.6,0-2.8-0.2-3.6-0.7c-0.8-0.5-1.1-1.4-1.1-2.6v-4.5c0-0.2-0.1-0.2-0.2-0.2h-1c-0.3,0-0.4,0-0.4-0.3v-1.7c0-0.2,0.1-0.2,0.3-0.2
		h1.1c0.2,0,0.2-0.2,0.2-0.3v-2.2c0-0.2,0.1-0.4,0.3-0.4h3.4c0.2,0,0.3,0.2,0.3,0.3v2.3c0.1,0.2,0.2,0.2,0.3,0.2h3.1
		c0.2,0,0.5,0.1,0.5,0.4v1.5c0,0.2-0.2,0.4-0.4,0.4H37c-0.2,0-0.5,0.2-0.5,0.4v3.2c0,0.3,0,0.6,0,0.9c0,0.2,0.1,0.5,0.2,0.7
		c0.1,0.2,0.3,0.4,0.6,0.5c0.2,0.2,0.6,0.2,1.2,0.2c0.2,0,0.5-0.1,0.8-0.1c0.3-0.1,0.5-0.2,0.6-0.2c0,0,0.1,0,0.2,0l0,0h0.2
		c0.1,0,0.1,0.1,0.2,0.1v2.1H40.2z"/>
	<path class="st0" d="M51.2,73.6c0.1-0.1,0.1-0.2,0.1-0.2v-1.8c0-0.1-0.1-0.1-0.1-0.1c-0.5,0.1-1.1,0.1-1.7,0.2
		c-0.6,0.1-1.1,0.2-1.5,0.2c-0.4,0.1-0.7,0.2-1,0.4c-0.2,0.2-0.3,0.5-0.3,0.7s0,0.4,0.1,0.5c0.1,0.2,0.2,0.2,0.3,0.4
		c0.2,0.2,0.4,0.2,0.6,0.2c0.2,0.1,0.6,0.1,1.1,0.1c0.4,0,0.8-0.1,1.2-0.2C50.6,74,50.9,73.9,51.2,73.6 M51.3,75.3
		C51.3,75.2,51.3,75.2,51.3,75.3c-0.2,0.1-0.6,0.2-0.8,0.4c-0.3,0.2-0.6,0.3-0.9,0.4c-0.4,0.2-0.8,0.2-1.2,0.3
		c-0.5,0.1-1,0.1-1.5,0.1c-1.2,0-2.3-0.3-3.1-0.9c-0.8-0.6-1.2-1.4-1.2-2.3c0-0.7,0.2-1.4,0.6-1.8c0.4-0.5,1-0.8,1.8-1.1
		c0.7-0.2,1.7-0.5,2.8-0.6c1.1-0.1,2.3-0.2,3.5-0.2c0,0,0.1,0,0.1-0.1c0-0.6-0.3-1-0.9-1.2C50,68,49.1,68,48,68
		c-0.6,0-1.4,0.1-2.2,0.3c-0.8,0.2-1.4,0.3-1.7,0.4c-0.2,0-0.3,0-0.3-0.3v-1.6c0-0.4,0.3-0.6,0.6-0.6c0.4-0.1,0.9-0.2,1.5-0.2
		c1-0.1,1.9-0.2,2.9-0.2c2.4,0,4.1,0.2,5,0.9c1.1,0.6,1.5,1.5,1.5,2.7v6.5c0,0.2-0.2,0.3-0.3,0.4h-3.4c-0.2,0-0.3-0.1-0.3-0.3
		L51.3,75.3L51.3,75.3z"/>
	<path class="st0" d="M23.9,73.6c0.1-0.1,0.1-0.2,0.1-0.2v-1.8c0-0.1-0.1-0.1-0.1-0.1c-0.5,0.1-1.1,0.1-1.7,0.2
		c-0.6,0.1-1.1,0.2-1.5,0.2c-0.4,0.1-0.7,0.2-1,0.4c-0.2,0.2-0.3,0.5-0.3,0.7s0,0.4,0.1,0.5c0.1,0.2,0.2,0.2,0.3,0.4
		c0.2,0.2,0.4,0.2,0.6,0.2c0.2,0.1,0.6,0.1,1.1,0.1c0.4,0,0.8-0.1,1.2-0.2C23.3,74,23.6,73.9,23.9,73.6 M24,75.3
		C24,75.2,23.9,75.2,24,75.3c-0.2,0.1-0.6,0.2-0.8,0.4c-0.3,0.2-0.6,0.3-0.9,0.4c-0.4,0.2-0.8,0.2-1.2,0.3c-0.5,0.1-1,0.1-1.5,0.1
		c-1.2,0-2.3-0.3-3.1-0.9c-0.8-0.6-1.2-1.4-1.2-2.3c0-0.7,0.2-1.4,0.6-1.8c0.4-0.5,1-0.8,1.8-1.1c0.7-0.2,1.7-0.5,2.8-0.6
		c1.1-0.1,2.3-0.2,3.5-0.2c0,0,0.1,0,0.1-0.1c0-0.6-0.3-1-0.9-1.2C22.6,68,21.8,68,20.7,68c-0.6,0-1.4,0.1-2.2,0.3
		c-0.8,0.2-1.4,0.3-1.7,0.4c-0.2,0-0.3,0-0.3-0.3v-1.6c0-0.4,0.3-0.6,0.6-0.6c0.4-0.1,0.9-0.2,1.5-0.2c1-0.1,1.9-0.2,2.9-0.2
		c2.4,0,4.1,0.2,5,0.9c1.1,0.6,1.5,1.5,1.5,2.7v6.5c0,0.2-0.2,0.3-0.3,0.4h-3.4c-0.2,0-0.3-0.1-0.3-0.3C24,75.9,24,75.3,24,75.3z"/>
	<path class="st0" d="M65.4,76.5c-1.1,0-2.1-0.1-3.1-0.3c-0.9-0.2-1.7-0.6-2.4-1c-0.6-0.4-1.2-1-1.5-1.6c-0.4-0.6-0.6-1.5-0.6-2.4
		c0-1,0.2-1.8,0.6-2.4c0.4-0.6,1-1.2,1.7-1.7c0.7-0.4,1.5-0.7,2.4-1c0.9-0.2,1.9-0.3,2.8-0.3c0.9,0,1.7,0.1,2.4,0.2
		c0.6,0.2,1.2,0.3,1.8,0.5c0.1,0,0.2,0.1,0.2,0.3V69c0,0.2,0,0.3-0.2,0.3h-0.3c-0.1,0-0.1,0-0.2,0c-0.2-0.1-0.3-0.2-0.5-0.3
		c-0.2-0.2-0.5-0.2-0.8-0.4c-0.3-0.2-0.6-0.2-1.1-0.3c-0.4-0.1-0.8-0.2-1.3-0.2c-1.1,0-1.9,0.2-2.5,0.8c-0.6,0.6-0.9,1.3-0.9,2.3
		c0,1,0.3,1.7,0.9,2.2c0.6,0.5,1.5,0.7,2.6,0.7c0.5,0,1-0.1,1.4-0.2s0.7-0.2,1.1-0.3c0.2-0.1,0.5-0.2,0.6-0.4
		c0.2-0.2,0.3-0.2,0.5-0.3c0.1,0,0.1-0.1,0.2-0.1h0.2c0.1,0,0.2,0.1,0.2,0.2v2.3c0,0.2-0.1,0.3-0.2,0.4c-0.6,0.2-1.1,0.3-1.8,0.5
		C67,76.4,66.3,76.5,65.4,76.5"/>
	<path class="st0" d="M81,73.6v-2.1c-0.6,0-1.1,0.1-1.8,0.2c-0.6,0.1-1.1,0.2-1.5,0.2c-0.4,0.1-0.7,0.2-1,0.4
		c-0.2,0.2-0.3,0.5-0.3,0.7s0,0.4,0.1,0.5c0.1,0.2,0.2,0.2,0.3,0.4c0.2,0.2,0.4,0.2,0.6,0.2c0.2,0.1,0.6,0.1,1.1,0.1
		c0.4,0,0.8-0.1,1.2-0.2C80.2,74,80.6,73.8,81,73.6 M81,75.2C80.9,75.2,80.9,75.2,81,75.2c-0.2,0.1-0.6,0.2-0.8,0.4
		c-0.3,0.2-0.6,0.3-0.9,0.4c-0.4,0.2-0.8,0.2-1.2,0.3c-0.6,0.2-1.1,0.2-1.5,0.2c-1.2,0-2.3-0.3-3.1-0.9c-0.8-0.6-1.2-1.4-1.2-2.3
		c0-0.7,0.2-1.4,0.6-1.8c0.4-0.5,1.1-0.8,1.8-1.1c0.7-0.2,1.7-0.5,2.8-0.6c1.1-0.1,2.3-0.2,3.4-0.2H81l0,0c0-0.6-0.3-1-0.9-1.2
		S78.6,68,77.5,68c-0.6,0-1.4,0.1-2.2,0.3c-0.7,0.2-1.3,0.3-1.6,0.4c-0.2,0.1-0.3,0-0.4-0.2v-1.9c0-0.2,0.1-0.2,0.2-0.2
		c0,0,0.2-0.1,0.4-0.1c0.4-0.1,0.9-0.2,1.5-0.2c1-0.1,1.9-0.2,2.9-0.2c2.4,0,4.1,0.2,5,0.8c1.1,0.6,1.5,1.5,1.5,2.7v6.5
		c0,0.2-0.1,0.4-0.4,0.4h-3.3c-0.2,0-0.4-0.1-0.4-0.4v-0.7H81z"/>
	<path class="st0" d="M96.7,73.3v-4.9c0-0.1-0.1-0.1-0.1-0.1c-0.2-0.1-0.6-0.2-0.8-0.2c-0.3-0.1-0.6-0.1-0.9-0.1
		c-1.1,0-1.9,0.2-2.4,0.8c-0.6,0.6-0.8,1.3-0.8,2.2c0,1,0.2,1.7,0.6,2.2s1.1,0.6,2.1,0.6c0.4,0,0.7-0.1,1.2-0.2
		c0.3-0.1,0.6-0.2,1-0.3C96.6,73.5,96.7,73.4,96.7,73.3 M100.8,75.8c0,0.2-0.2,0.4-0.4,0.4h-3.2c-0.2,0-0.4-0.1-0.4-0.3v-0.5
		c-0.1-0.2-0.2-0.2-0.2-0.1c-0.6,0.4-1.2,0.6-1.8,0.9c-0.6,0.2-1.3,0.3-2.1,0.3c-1.5,0-2.8-0.5-3.7-1.5c-1-1-1.4-2.3-1.4-3.8
		c0-0.9,0.2-1.6,0.5-2.3c0.3-0.6,0.7-1.2,1.3-1.7c0.5-0.5,1.1-0.8,1.9-1.1c0.7-0.2,1.5-0.4,2.2-0.4c0.7,0,1.4,0.1,1.9,0.2
		c0.5,0.2,0.8,0.2,1.4,0.4c0.1,0.1,0.2,0,0.2-0.1v-3.9c0-0.1,0.1-0.2,0.2-0.2h3.7c0.2,0,0.2,0.1,0.2,0.2v13.4H100.8z"/>
	<path class="st0" d="M112.3,73.6c0.2-0.2,0.5-0.6,0.6-0.9c0.2-0.4,0.2-0.9,0.2-1.5c0-0.6-0.1-1.1-0.2-1.5c-0.2-0.4-0.3-0.7-0.6-1
		c-0.2-0.2-0.6-0.4-0.9-0.5c-0.3-0.1-0.7-0.2-1.1-0.2c-0.4,0-0.7,0.1-1.1,0.2c-0.3,0.1-0.6,0.2-0.9,0.5c-0.2,0.2-0.5,0.6-0.6,1
		c-0.2,0.4-0.2,0.9-0.2,1.5c0,0.6,0.1,1.1,0.2,1.5c0.2,0.4,0.3,0.7,0.6,1c0.2,0.2,0.6,0.4,0.9,0.5c0.3,0.1,0.7,0.2,1.1,0.2
		c0.4,0,0.7-0.1,1.1-0.2C111.7,74,112,73.9,112.3,73.6 M117.3,71.2c0,1.7-0.6,3-1.9,3.9c-1.2,1-2.9,1.5-5.2,1.5
		c-2.2,0-4-0.5-5.2-1.5c-1.2-1-1.9-2.3-1.9-3.9c0-1.7,0.6-3,1.9-3.9c1.2-1,2.9-1.5,5.2-1.5c2.3,0,4,0.5,5.2,1.5
		C116.7,68.2,117.3,69.5,117.3,71.2"/>
</g>
</svg>
